<svg width="24" height="23" viewBox="0 0 24 23" fill="none" xmlns="http://www.w3.org/2000/svg">
<path d="M17.7515 4.23552C17.0047 4.23552 16.3972 4.84298 16.3972 5.58977C16.3972 6.33656 17.0047 6.94403 17.7515 6.94403C18.4982 6.94403 19.1057 6.33656 19.1057 5.58977C19.1057 4.83741 18.4982 4.23552 17.7515 4.23552ZM11.7437 5.96874C8.61165 5.96874 6.06476 8.51563 6.06476 11.6477C6.06476 14.7797 8.61165 17.3266 11.7437 17.3266C14.8758 17.3266 17.4226 14.7797 17.4226 11.6477C17.4226 8.51563 14.8702 5.96874 11.7437 5.96874ZM11.7437 15.2869C9.73741 15.2869 8.1045 13.654 8.1045 11.6477C8.1045 9.64139 9.73741 8.00848 11.7437 8.00848C13.75 8.00848 15.3829 9.64139 15.3829 11.6477C15.3773 13.654 13.75 15.2869 11.7437 15.2869ZM23.2019 6.92731C23.2019 3.09862 20.0977 0 16.2746 0H7.12922C3.30053 0 0.201904 3.10419 0.201904 6.92731V16.0727C0.201904 19.9014 3.3061 23 7.12922 23H16.2746C20.1033 23 23.2019 19.8958 23.2019 16.0727V6.92731ZM21.034 16.0727C21.034 18.6976 18.9051 20.8321 16.2746 20.8321H7.12922C4.49873 20.8321 2.36982 18.7032 2.36982 16.0727V6.92731C2.36982 4.3024 4.49873 2.16792 7.12922 2.16792H16.2746C18.9051 2.16792 21.034 4.29683 21.034 6.92731V16.0727Z" fill="white"/>
</svg>
