<svg width="11" height="23" viewBox="0 0 11 23" fill="none" xmlns="http://www.w3.org/2000/svg">
<path fill-rule="evenodd" clip-rule="evenodd" d="M2.42251 11.5901V22.7094C2.42251 22.8721 2.55411 23 2.72159 23H6.96846C7.13594 23 7.26754 22.8721 7.26754 22.7094V11.4099H10.348C10.5035 11.4099 10.6291 11.2937 10.6471 11.1425L10.9462 7.73642C10.9581 7.56785 10.8265 7.42254 10.6471 7.42254H7.27352V5.01036C7.27352 4.44655 7.74606 3.98736 8.32626 3.98736H10.7009C10.8684 3.98736 11 3.85949 11 3.69674V0.290624C11 0.127875 10.8684 0 10.7009 0H6.68733C4.33062 0 2.42251 1.85418 2.42251 4.1443V7.42835H0.299076C0.131593 7.42835 0 7.55623 0 7.71898V11.1251C0 11.2878 0.131593 11.4157 0.299076 11.4157H2.42251V11.5901Z" fill="white"/>
</svg>
