<svg width="21" height="23" viewBox="0 0 21 23" fill="none" xmlns="http://www.w3.org/2000/svg">
<path d="M20.0432 13.9616V21.9927C20.0432 22.1886 19.9007 22.3518 19.7296 22.3518H16.1091C15.9381 22.3518 15.7955 22.1886 15.7955 21.9927V14.5231C15.7955 12.5578 15.1798 11.2127 13.6461 11.2127C12.4716 11.2127 11.776 12.1138 11.4681 12.9887C11.354 13.3021 11.3255 13.7331 11.3255 14.1771V21.9927C11.3255 22.1886 11.183 22.3518 11.012 22.3518H7.39148C7.21473 22.3518 7.07789 22.1886 7.07789 21.9927C7.08359 20.0012 7.1235 10.3509 7.08359 8.08517C7.07789 7.88276 7.22043 7.71953 7.39718 7.71953H11.012C11.183 7.71953 11.3255 7.88277 11.3255 8.07865V9.79587C11.3141 9.80892 11.3027 9.82851 11.297 9.84157H11.3255V9.79587C11.89 8.8034 12.8992 7.38 15.157 7.38C17.9507 7.38 20.0432 9.4694 20.0432 13.9616ZM0.794788 22.3518H4.41527C4.58632 22.3518 4.72886 22.1886 4.72886 21.9927V8.07865C4.72886 7.88277 4.58632 7.71953 4.41527 7.71953H0.794788C0.623741 7.71953 0.481201 7.88277 0.481201 8.07865V21.9927C0.481201 22.1951 0.61804 22.3518 0.794788 22.3518Z" fill="white"/>
<path d="M4.75175 3.25352C4.75175 4.68998 3.73116 5.85873 2.47682 5.85873C1.22248 5.85873 0.201904 4.68998 0.201904 3.25352C0.201904 1.81707 1.22248 0.648315 2.47682 0.648315C3.73116 0.648315 4.75175 1.81707 4.75175 3.25352Z" fill="white"/>
</svg>
