<svg width="21" height="21" viewBox="0 0 21 21" fill="none" xmlns="http://www.w3.org/2000/svg">
<path d="M20.923 2.50969C20.2571 2.8741 19.5203 3.09938 18.7998 3.24514C19.1437 3.17226 19.6458 2.42356 19.8478 2.11878C20.1534 1.65498 20.41 1.12493 20.5519 0.555126C20.5683 0.508746 20.5846 0.455741 20.5464 0.422613C20.5028 0.402736 20.47 0.409362 20.4318 0.435864C19.6295 0.959291 18.7998 1.33695 17.9101 1.60861C17.8392 1.62848 17.7846 1.60861 17.7355 1.5556C17.6645 1.45622 17.5936 1.36346 17.5171 1.28395C17.146 0.89966 16.7475 0.601505 16.2945 0.376233C15.705 0.0847044 15.061 -0.0411828 14.4223 0.0118224C13.8056 0.058202 13.1943 0.270223 12.6484 0.621382C12.0972 0.972542 11.6059 1.45622 11.2184 2.03927C10.8145 2.64221 10.5143 3.35778 10.3614 4.11973C10.2141 4.84855 10.225 5.57737 10.3178 6.31282C10.3287 6.43871 10.3232 6.45196 10.2305 6.43871C6.76996 5.8159 3.90441 4.31187 1.57376 1.0918C1.47005 0.952665 1.41547 0.952665 1.3336 1.10506C0.312919 2.96024 0.809614 5.93516 2.08137 7.39943C2.25058 7.59157 2.42524 7.79034 2.61082 7.96923C2.53986 7.98911 1.69384 7.87647 0.94061 7.39943C0.836904 7.31992 0.78778 7.3663 0.782322 7.50544C0.771406 7.70421 0.78778 7.88973 0.809613 8.10837C1.00611 9.99006 2.07591 11.726 3.54417 12.4018C3.71883 12.4879 3.90987 12.5674 4.1009 12.6072C3.76795 12.6933 3.42409 12.7596 2.46345 12.6668C2.34337 12.6403 2.2997 12.7132 2.34337 12.8523C3.06385 15.2376 4.61943 15.9465 5.78749 16.3507C5.94577 16.3838 6.0986 16.3838 6.25689 16.4302C6.24597 16.4501 6.24051 16.4501 6.2296 16.4633C5.84207 17.1789 4.50481 17.7089 3.87712 17.974C2.74181 18.4576 1.50826 18.6697 0.30746 18.5305C0.116423 18.4974 0.0727574 18.4974 0.0236337 18.5305C-0.0309482 18.5703 0.0181747 18.6233 0.0782148 18.6895C0.323833 18.8817 0.569452 19.0606 0.820529 19.2262C1.58468 19.7165 2.37612 20.1074 3.20576 20.3857C7.4959 21.8235 12.3264 20.77 15.5467 16.8807C18.0739 13.8329 18.9636 9.62565 18.9636 5.41173C18.9636 5.24609 19.1218 5.15333 19.2201 5.0672C19.8805 4.46426 20.3991 3.74869 20.8903 2.94699C20.9995 2.76809 20.994 2.60908 20.994 2.54282C20.994 2.52957 20.994 2.52294 20.994 2.52294C21.0049 2.44344 21.0104 2.46331 20.923 2.50969Z" fill="white"/>
<path fill-rule="evenodd" clip-rule="evenodd" d="M6.94995 20.9156C6.94995 20.8762 7.32268 20.9156 6.94995 20.9156C6.94995 20.8959 6.9938 20.9156 6.94995 20.9156Z" fill="white"/>
<path fill-rule="evenodd" clip-rule="evenodd" d="M14.3729 0.0238037C14.3512 0.0422507 14.3185 0.0422507 14.2859 0.0238037C14.3185 0.0238037 14.3512 0.0238037 14.3729 0.0238037Z" fill="white"/>
</svg>
