<?xml version="1.0" encoding="UTF-8"?>
<svg id="Capa_1" data-name="Capa 1" xmlns="http://www.w3.org/2000/svg" viewBox="0 0 74 44.14">
  <defs>
    <style>
      .cls-1, .cls-2 {
        fill: #1d1d1b;
        stroke-width: 0px;
      }

      .cls-2 {
        fill-rule: evenodd;
      }
    </style>
  </defs>
  <g>
    <path class="cls-2" d="m3.02,41.15c.04-.06.1-.09.2-.1v-.13h-.93v.13c.09,0,.16.05.19.1s.05.17.05.37v.48l-.65-.68s-.05-.04-.07-.07-.03-.06-.03-.08.01-.05.03-.07c.02-.02.05-.04.09-.05v-.13H0v.13c.09,0,.16.05.2.1.03.05.05.17.05.37v1.9c0,.19-.02.33-.05.38-.04.06-.11.09-.2.1v.13h.99v-.13c-.12,0-.2-.04-.25-.11s-.07-.2-.07-.42v-1.86l1.85,1.92v.1c0,.15-.01.25-.06.31-.05.04-.13.07-.25.07v.13h.82v-.13s.06,0,.09-.02c-.05-.02-.09-.04-.11-.08-.03-.05-.05-.18-.05-.38v-1.9c0-.21.02-.32.06-.38Zm3.62,2.66c-.05-.06-.12-.18-.19-.38l-.77-2.11s-.02-.06-.02-.08-.01-.04-.01-.06c0-.03.02-.05.04-.07.02-.03.06-.05.1-.06v-.13h-1.55v.13c.05.02.08.04.11.06.02.02.03.05.03.08s-.01.05-.01.07-.01.05-.02.06l-.78,2c-.09.22-.17.37-.24.45-.05.05-.11.09-.19.11.02,0,.05.02.08.02v.13h.97v-.13c-.09,0-.15,0-.19-.04-.06-.04-.07-.1-.07-.17,0-.04.02-.08.02-.14.01-.06.02-.12.05-.19l.2-.51c.35.02.62.1.85.25.22.17.34.34.34.54,0,.07-.02.13-.06.17-.04.04-.11.07-.2.08v.13h1.73v-.13c-.1,0-.17-.02-.22-.08Zm-1.9-1.22c-.13-.04-.26-.06-.4-.08l.35-.9.37,1.12c-.1-.06-.22-.11-.32-.14Zm5.26.44c-.11.21-.24.39-.41.5-.16.12-.35.17-.58.17-.34,0-.64-.14-.87-.4-.23-.27-.35-.59-.35-.99,0-.31.09-.55.25-.74.17-.18.39-.29.66-.29.2,0,.38.07.54.19.15.13.31.33.49.63l.17-.02-.29-1.26c-.07.02-.13.05-.19.06-.06,0-.11.02-.16.02s-.15,0-.33-.02c-.18-.02-.33-.03-.46-.03-.59,0-1.04.13-1.33.38-.3.24-.44.61-.44,1.1,0,.53.18.96.54,1.29.36.34.83.5,1.42.5.11,0,.25-.02.44-.03.18-.02.3-.04.36-.04.04,0,.09,0,.15,0,.04,0,.09.03.14.03l.4-1.02-.15-.04Zm1.58-1.88c.04-.06.09-.09.19-.1v-.13h-1.54v.13c.1,0,.16.05.19.1s.05.17.05.37v1.9c0,.19-.02.33-.05.38-.03.06-.09.09-.19.1v.13h1.54v-.13c-.1,0-.16-.04-.19-.1-.04-.05-.06-.18-.06-.38v-1.9c.01-.2.03-.31.06-.37Zm3.51.17c-.36-.32-.79-.48-1.3-.48s-.95.16-1.3.48c-.35.31-.53.69-.53,1.16s.17.85.53,1.15c.35.32.78.47,1.3.47s.95-.16,1.3-.47c.35-.31.52-.69.52-1.15s-.17-.85-.52-1.16Zm-.75,2.12c-.11.17-.28.26-.48.26-.24,0-.43-.14-.58-.39-.14-.28-.21-.63-.21-1.07,0-.31.06-.56.18-.73.11-.17.28-.25.49-.25.23,0,.42.14.57.4.14.26.22.62.22,1.06-.01.31-.07.55-.19.72Zm4.5-2.29c.04-.06.1-.09.2-.1v-.13h-.93v.13c.09,0,.16.05.19.1.04.05.06.17.06.37v.48l-.67-.68s-.04-.04-.06-.07c-.02-.03-.02-.06-.02-.08s.01-.05.03-.07c.01-.02.05-.04.08-.05v-.13h-1.9v.13c.09,0,.16.05.19.1s.05.17.05.37v1.9c0,.19-.02.33-.05.38-.03.06-.1.09-.19.1v.13h1v-.13c-.12,0-.21-.04-.25-.11-.05-.07-.07-.2-.07-.42v-1.86l1.86,1.92v.1c0,.15-.02.25-.08.31-.03.04-.12.07-.24.07v.13h.82v-.13s.06,0,.09-.02c-.05-.02-.09-.04-.11-.08-.03-.05-.05-.18-.05-.38v-1.9c0-.21,0-.32.05-.38Zm3.61,2.66c-.05-.06-.11-.18-.18-.38l-.77-2.11s-.02-.06-.02-.08c-.01-.02-.01-.04-.01-.06,0-.03.01-.05.04-.07.01-.03.05-.05.09-.06v-.13h-1.55v.13s.09.04.11.06.03.05.03.08v.07s-.01.05-.02.06l-.78,2c-.09.22-.17.37-.24.45-.05.05-.11.08-.18.11.02,0,.05.02.09.02v.13h.94v-.13c-.09,0-.15,0-.19-.04-.04-.04-.07-.1-.07-.17,0-.04.01-.08.02-.14.01-.06.03-.12.06-.18l.2-.51c.34.02.62.1.85.25.22.17.34.34.34.54,0,.07-.02.13-.06.17-.04.04-.11.07-.2.08v.13h1.66v-.13s.02,0,.03,0c-.09-.01-.15-.03-.19-.08Zm-1.9-1.22c-.12-.04-.25-.06-.39-.08l.35-.9.37,1.12c-.11-.06-.21-.11-.33-.14Zm4.87.19c-.14.31-.31.55-.5.71s-.4.23-.64.23c-.15,0-.26-.02-.32-.09-.06-.06-.09-.21-.09-.44v-1.67c0-.17.02-.3.06-.36.04-.06.12-.09.21-.11v-.13h-1.56v.13c.1,0,.16.05.19.1.04.05.06.17.06.37v1.9c0,.19-.02.33-.06.38-.03.05-.08.08-.16.1.01,0,.03,0,.05,0v.13h2.25c.07,0,.12,0,.15,0,.03.02.06.03.09.05l.39-1.28-.12-.04Zm5.34-.93c-.14-.25-.33-.45-.59-.62-.17-.1-.35-.18-.55-.23-.21-.06-.44-.08-.69-.08h-1.58v.13c.09,0,.15.05.19.1.03.05.05.17.05.37v1.9c0,.19-.02.33-.05.38-.04.06-.1.09-.19.1v.13h1.9c.31,0,.55-.02.72-.08.18-.05.35-.14.49-.25.17-.12.29-.28.38-.46.08-.18.13-.37.13-.57,0-.29-.07-.56-.21-.82Zm-1.14,1.58c-.16.19-.39.29-.67.29-.12,0-.21,0-.25-.05-.05-.04-.07-.13-.07-.26v-1.75c0-.16.02-.26.07-.33.04-.04.12-.06.21-.06.26,0,.48.13.67.39.18.27.29.6.29.99,0,.33-.09.58-.25.78Zm4.58-.65c-.17.32-.36.55-.57.7s-.46.23-.74.23c-.17,0-.28-.02-.35-.09-.05-.06-.09-.18-.09-.36v-1.02h.26c.2,0,.36.04.47.12.11.07.19.21.26.41l.1-.02-.22-1.19h-.1c0,.14-.06.23-.12.28-.06.05-.18.08-.36.08h-.29v-.33c0-.15.03-.25.08-.3.05-.04.15-.07.28-.07.27,0,.51.06.7.17.19.12.34.29.44.52l.14-.02-.29-1.08s-.06.06-.11.07c-.05.02-.1.03-.17.03h-2.34v.13c.1,0,.16.05.2.1.03.05.05.17.05.37v1.9c0,.19-.02.33-.05.38-.04.06-.1.09-.2.1v.13h2.47c.08,0,.13,0,.17,0,.03.02.07.03.1.05l.43-1.28-.15-.02Zm3.11,0c-.14.31-.31.55-.49.71-.19.16-.4.23-.65.23-.15,0-.25-.02-.32-.09-.06-.06-.09-.21-.09-.44v-1.67c0-.17.02-.3.07-.36.03-.06.11-.09.21-.11v-.13h-1.56v.13c.09,0,.16.05.19.1s.05.17.05.37v1.9c0,.19,0,.33-.05.38-.04.06-.1.09-.19.1v.13h2.33c.07,0,.11,0,.14,0,.03.02.06.03.09.05l.38-1.28-.11-.03Zm4.96,0c-.17.32-.36.55-.58.7-.21.15-.46.23-.73.23-.17,0-.29-.02-.35-.09-.06-.06-.09-.18-.09-.36v-1.02h.27c.19,0,.35.04.46.12.11.07.19.21.26.41l.1-.02-.23-1.19h-.1c-.02.14-.05.23-.12.28-.05.05-.17.08-.35.08h-.29v-.33c0-.15.02-.25.08-.3.04-.04.13-.07.27-.07.27,0,.51.06.7.17.19.12.33.29.43.52l.14-.02-.29-1.08s-.06.06-.11.07c-.04.02-.1.03-.17.03h-2.34v.13c.1,0,.16.05.2.1.03.05.05.17.05.37v1.9c0,.19-.02.33-.05.38-.04.06-.1.09-.2.1v.13h2.48c.06,0,.12,0,.16,0,.03.02.07.03.1.05l.43-1.28-.13-.02Zm3.04-.38c-.15-.13-.41-.26-.83-.39l-.42-.12c-.18-.05-.3-.1-.36-.15-.06-.06-.09-.11-.09-.2s.04-.17.13-.22c.08-.06.2-.09.35-.09.18,0,.37.05.53.17.16.11.31.28.42.49l.14-.03-.11-.98c-.06.03-.1.04-.14.05-.04.02-.07.02-.1.02-.08,0-.23-.02-.46-.04-.22-.03-.42-.05-.56-.05-.39,0-.7.09-.94.27-.23.18-.33.41-.33.71,0,.22.06.41.19.55.14.14.35.25.64.34l.41.12s.05.02.1.03c.38.11.56.26.56.45,0,.13-.06.23-.17.31-.12.08-.29.11-.5.11-.32,0-.58-.07-.77-.25-.21-.16-.33-.41-.38-.7h-.14l.09,1.33s.11-.07.15-.08c.04-.02.09-.02.13-.02s.18.02.41.05c.24.04.45.06.64.06.49,0,.89-.11,1.18-.33.3-.19.45-.47.45-.81,0-.27-.07-.46-.22-.6Zm3.17-1.53s-.06.03-.1.03c-.04,0-.08,0-.14,0h-2.36s-.1,0-.13,0-.07-.02-.09-.03l-.24,1.08.15.02c.07-.23.19-.4.34-.51.15-.11.34-.17.57-.17h.06v2.08c0,.22-.02.35-.06.42s-.13.11-.26.11v.13h1.67v-.13c-.12,0-.19-.04-.24-.11-.04-.07-.07-.2-.07-.42v-2.08h.07c.22,0,.42.06.57.17.15.11.26.28.34.51l.15-.02-.23-1.08Zm3.02,2.94c-.06-.06-.12-.18-.2-.38l-.77-2.11s-.02-.06-.02-.08v-.06s0-.05.04-.07c.02-.03.05-.05.1-.06v-.13h-1.55v.13s.08.04.11.06.04.05.04.08,0,.05,0,.07c0,.02,0,.05-.03.06l-.78,2c-.09.22-.17.37-.25.45-.06.07-.15.11-.26.13v.13h1.13v-.13c-.09,0-.15,0-.19-.04-.04-.04-.07-.1-.07-.17,0-.04,0-.08.02-.14s.03-.12.06-.18l.2-.51c.34.02.62.1.85.25.22.17.34.34.34.54,0,.07-.03.13-.06.17-.05.04-.11.07-.2.08v.13h1.65v-.13s.02,0,.03,0c-.09-.01-.14-.04-.18-.08Zm-1.92-1.22c-.11-.04-.25-.06-.4-.08l.37-.9.37,1.12c-.1-.06-.22-.11-.34-.14Zm5.47-.74c-.14-.25-.34-.45-.59-.62-.16-.1-.35-.18-.56-.23-.2-.06-.43-.08-.68-.08h-1.59v.13c.1,0,.16.05.2.1.03.05.05.17.05.37v1.9c0,.19-.02.33-.05.38-.04.05-.09.08-.17.1.02,0,.04,0,.05,0v.13h1.83c.3,0,.54-.02.73-.08.18-.05.35-.14.5-.25.17-.12.29-.28.37-.46.08-.18.13-.37.13-.57-.01-.3-.09-.57-.22-.83Zm-1.14,1.58c-.16.19-.39.29-.67.29-.13,0-.21,0-.25-.05-.05-.04-.06-.13-.06-.26v-1.75c0-.16,0-.26.06-.33.04-.04.11-.06.21-.06.26,0,.48.13.67.39.19.27.29.6.29.99,0,.33-.09.58-.25.78Zm4.56-2.11c-.36-.32-.78-.48-1.3-.48s-.95.16-1.3.48c-.35.31-.53.69-.53,1.16s.18.85.53,1.15c.35.32.78.47,1.3.47s.96-.16,1.3-.47c.35-.31.53-.69.53-1.15,0-.47-.18-.85-.53-1.16Zm-.75,2.12c-.12.17-.28.26-.49.26-.23,0-.43-.14-.57-.39-.14-.28-.22-.63-.22-1.07,0-.31.06-.56.17-.73.12-.17.29-.25.5-.25.23,0,.42.14.57.4.14.26.22.62.22,1.06,0,.31-.06.55-.18.72Zm6.36-.41c-.1.21-.23.39-.4.5-.16.12-.36.17-.59.17-.35,0-.63-.14-.87-.4-.22-.27-.34-.59-.34-.99,0-.31.09-.55.26-.74.16-.18.38-.29.66-.29.2,0,.38.07.54.19.15.13.31.33.49.63l.17-.02-.29-1.26c-.07.02-.14.05-.2.06-.06,0-.11.02-.15.02s-.15,0-.34-.02c-.17-.02-.33-.03-.47-.03-.58,0-1.02.13-1.33.38-.3.24-.45.61-.45,1.1,0,.53.19.96.54,1.29.37.34.85.5,1.43.5.11,0,.26-.02.44-.03.18-.02.3-.04.36-.04.05,0,.1,0,.15,0,.04,0,.1.03.14.03l.4-1.02-.15-.04Zm1.58.76s-.05-.18-.05-.38v-1.9c0-.2.02-.32.05-.37.04-.05.1-.09.19-.1h-.01v-.13h-1.51v.13c.09,0,.15.05.19.1s.05.17.05.37v1.9c0,.19-.01.33-.05.38-.04.06-.1.09-.19.1v.13h1.53v-.13c-.09,0-.15-.04-.2-.1Zm3.53-2.74v-.13h-1.02v.13c.08,0,.15.03.19.07.03.04.05.08.05.14,0,.02-.01.06-.02.13-.02.05-.04.13-.08.24l-.5,1.36-.48-1.36c-.03-.09-.05-.16-.07-.23-.02-.06-.03-.11-.03-.13,0-.06.01-.1.05-.14.03-.03.08-.06.15-.08v-.13h-1.59v.13h-.01c.08,0,.14.05.18.1.05.06.1.17.16.35l.71,1.99s.02.05.04.1c.03.08.05.13.05.16,0,.04-.01.08-.04.11-.03.02-.07.04-.11.04v.13h1.31v-.13s-.07-.02-.09-.04c-.03-.03-.04-.07-.04-.1,0-.02.01-.04.01-.07.01-.04.03-.08.05-.13l.72-1.85s.03-.08.05-.14c.11-.27.24-.45.4-.5,0-.02-.02-.02-.04-.02Zm1.34.1c.04-.06.1-.09.2-.1v-.13h-1.45v.13s-.03,0-.04,0c.07.02.12.05.14.09.03.05.05.17.05.37v1.9c0,.19-.01.33-.05.38-.03.06-.1.09-.19.1v.13h1.54v-.13c-.1,0-.16-.04-.2-.1-.03-.05-.04-.18-.04-.38v-1.9c0-.2.01-.31.04-.37Zm3.33,1.63c-.13.31-.3.55-.49.71-.19.16-.4.23-.64.23-.15,0-.26-.02-.32-.09-.05-.06-.09-.21-.09-.44v-1.67c0-.17.02-.3.06-.36.03-.06.11-.09.21-.11v-.13h-1.56v.13c.09,0,.16.05.19.1.04.05.06.17.06.37v1.9c0,.19-.01.33-.06.38-.02.06-.09.09-.19.1v.13h2.33c.07,0,.11,0,.14,0,.03.02.06.03.09.05l.39-1.28-.12-.03Z"/>
    <path class="cls-2" d="m5.49,38.32l-.02-.04c-.21-.51-.42-.94-.63-1.29-.2-.35-.44-.65-.67-.89.43-.25.74-.47.92-.69.17-.21.26-.45.26-.71,0-.3-.11-.52-.32-.66-.21-.15-.52-.22-.95-.22H0v.23c.16.03.27.09.33.18.06.11.09.33.09.67v3.34c0,.35-.03.57-.09.67-.06.09-.17.16-.33.18v.24h2.62v-.24c-.15-.02-.27-.09-.33-.18-.06-.1-.09-.32-.09-.67v-1.46l.33-.1c.35.34.65.71.87,1.13.23.41.35.73.35.95,0,.08-.02.14-.06.19-.04.06-.12.11-.24.14v.24h2.71v-.24c-.23-.03-.47-.29-.67-.77Zm-2.28-2.61c-.24.2-.57.35-1.01.44v-1.34c0-.2.05-.33.13-.38.09-.04.24-.07.48-.07.26,0,.45.05.57.15.12.09.18.24.18.46,0,.27-.12.52-.35.74Zm8.3,1.41c-.3.56-.62.98-.99,1.24-.36.28-.78.41-1.25.41-.3,0-.5-.05-.6-.16-.1-.09-.16-.32-.16-.63v-1.81h.45c.34,0,.6.07.78.2.19.14.34.38.45.74l.18-.05-.38-2.1h-.17c-.04.25-.1.41-.21.5-.1.09-.32.14-.62.14h-.49v-.57c0-.28.04-.45.12-.53.09-.08.25-.13.48-.13.46,0,.87.11,1.2.3.32.21.58.5.75.91l.23-.03-.49-1.9c-.05.05-.1.1-.19.12-.08.03-.18.05-.31.05h-3.99v.23c.16.03.27.09.34.18.05.11.08.33.08.67v3.34c0,.35-.03.57-.08.67-.06.09-.18.16-.34.18v.24h4.24c.12,0,.22,0,.28.02.07.02.12.03.18.08l.74-2.26-.23-.05Zm6.5-.66c.07-.1.2-.18.39-.21v-.22h-2.75v.22c.18.04.31.11.38.21.07.11.11.32.11.65v.8c0,.36-.05.58-.14.69-.1.11-.26.16-.5.16-.47,0-.86-.24-1.19-.72-.32-.47-.48-1.07-.48-1.78,0-.58.15-1.03.44-1.36.3-.34.7-.5,1.2-.5.34,0,.65.07.92.26.26.18.52.45.75.82h.21l-.27-1.81c-.13.07-.24.12-.34.15-.09.03-.17.04-.25.04s-.28-.02-.61-.08c-.34-.05-.64-.09-.92-.09-.9,0-1.6.23-2.1.69s-.76,1.1-.76,1.91c0,.95.31,1.7.93,2.24.61.55,1.45.83,2.52.83.06,0,.27,0,.62-.02.34-.02.66-.02.95-.02h1.28v-.21c-.19-.03-.32-.1-.39-.2-.07-.11-.1-.32-.1-.65v-1.15c0-.33.04-.54.1-.65Zm3.31-2.24c.06-.09.17-.15.33-.18v-.23h-2.63v.23c.16.03.27.09.33.18.06.11.09.33.09.67v3.34c0,.35-.02.57-.09.67-.06.09-.17.16-.33.18v.24h2.63v-.24c-.16-.02-.27-.09-.33-.18-.06-.1-.09-.32-.09-.67v-3.34c0-.34.03-.56.09-.67Zm5.87,2.22c-.25-.24-.71-.47-1.42-.69l-.73-.21c-.31-.09-.52-.18-.62-.28-.1-.09-.15-.2-.15-.34,0-.17.08-.31.23-.41.15-.11.34-.16.59-.16.33,0,.62.1.9.3.29.2.53.49.74.86l.24-.03-.19-1.75c-.09.04-.16.07-.22.1-.07,0-.12.03-.19.03-.13,0-.4-.03-.79-.09-.39-.05-.7-.08-.95-.08-.68,0-1.21.15-1.61.47-.39.32-.6.73-.6,1.25,0,.4.12.71.35.96.24.26.6.45,1.1.6l.7.23s.1,0,.16.04c.65.2.97.46.97.79,0,.23-.1.41-.3.54-.2.12-.49.19-.85.19-.54,0-.98-.15-1.32-.44-.34-.29-.55-.71-.65-1.26h-.24s.15,2.34.15,2.34c.1-.07.19-.11.25-.14.08-.03.16-.04.23-.04s.31.03.71.1c.39.07.76.1,1.1.1.85,0,1.51-.18,2.03-.55.51-.37.76-.86.76-1.46-.02-.4-.14-.72-.38-.97Zm5.7-2.72c-.06.03-.11.05-.16.06-.05.02-.13.02-.23.02h-4.04c-.1,0-.17,0-.23-.02-.05,0-.1-.04-.16-.06l-.4,1.91.24.03c.14-.4.33-.69.59-.9.26-.2.59-.29.98-.29h.11v3.66c0,.39-.04.64-.12.76-.08.11-.22.17-.43.19v.24h2.87v-.24c-.2,0-.35-.07-.42-.19-.08-.12-.12-.38-.12-.76v-3.66h.12c.39,0,.71.09.97.29.26.2.46.5.59.9l.25-.03-.41-1.91Zm6.22,4.6l-.02-.04c-.22-.51-.43-.94-.64-1.29-.22-.35-.44-.65-.67-.89.44-.25.74-.47.92-.69.17-.21.25-.45.25-.71,0-.3-.1-.52-.31-.66-.21-.15-.52-.22-.96-.22h-4.08v.23c.16.03.27.09.34.18.05.11.08.33.08.67v3.34c0,.35-.03.57-.08.67-.07.09-.17.16-.34.18v.24h2.63v-.24c-.16-.02-.27-.09-.34-.18-.06-.1-.08-.32-.08-.67v-1.46l.32-.1c.35.34.64.71.87,1.13.22.41.35.73.35.95,0,.08-.03.14-.07.19-.04.06-.12.11-.23.14v.24h2.42l.02-.38c-.13-.15-.26-.34-.38-.63Zm-2.29-2.61c-.23.2-.57.35-1,.44v-1.34c0-.2.03-.33.12-.38.08-.04.24-.07.48-.07.26,0,.45.05.57.15.12.09.18.24.18.46.01.27-.1.52-.35.74Zm8.44,3.22c-.08-.09-.2-.32-.32-.66l-1.32-3.71c-.03-.08-.03-.13-.05-.16,0-.04,0-.07,0-.1,0-.06.02-.1.06-.15.04-.04.1-.07.17-.1v-.23h-2.64v.23c.08.03.14.07.17.12.03.04.06.09.06.15,0,.04,0,.08,0,.11,0,.05-.02.09-.04.12l-1.33,3.51c-.16.4-.29.66-.42.79-.03.02-.09.09-.09.09l-.02.38h1.59v-.24c-.15,0-.26-.02-.34-.09-.07-.07-.11-.16-.11-.3,0-.06,0-.14.03-.24.03-.1.07-.2.11-.33l.34-.91c.58.03,1.07.19,1.45.47.38.26.57.58.57.93,0,.14-.04.24-.11.32-.06.07-.18.12-.33.14v.24h2.96v-.24c-.15.02-.27-.04-.37-.14Zm-3.26-2.17c-.2-.05-.43-.11-.68-.13l.62-1.59.63,1.98c-.18-.1-.37-.2-.57-.26Zm9.63-1.28c-.24-.44-.57-.82-1-1.1-.29-.2-.61-.33-.96-.43-.35-.09-.74-.14-1.18-.14h-2.72v.23c.16.03.27.09.33.18.07.11.09.33.09.67v3.34c0,.35-.03.57-.09.67-.05.09-.16.16-.33.18v.24h3.26c.52,0,.94-.05,1.24-.14.33-.1.61-.24.86-.46.27-.23.48-.5.63-.8.15-.32.21-.65.21-1.01,0-.5-.11-.99-.34-1.43Zm-1.95,2.77c-.28.34-.66.5-1.15.5-.21,0-.36-.03-.44-.1-.07-.05-.11-.21-.11-.46v-3.08c0-.28.04-.47.11-.56s.19-.14.37-.14c.45,0,.83.23,1.15.7.32.46.47,1.05.47,1.73,0,.61-.12,1.08-.4,1.41Zm6.37-4.44v.23c.25.03.44.14.54.34.1.2.18.59.21,1.16l.07,1.4s0,.09,0,.14v.2c0,.52-.08.9-.28,1.12-.18.22-.48.34-.9.34-.39,0-.68-.1-.87-.29-.19-.19-.28-.5-.28-.89v-.34c0-.09,0-.17,0-.25l.04-1.7c0-.47.06-.78.15-.95.1-.16.26-.26.49-.29v-.23h-2.92v.23c.21,0,.35.06.43.15.07.1.11.31.11.63v.12l-.09,2.09c0,.08,0,.18,0,.3,0,.18,0,.29,0,.34,0,.62.18,1.08.54,1.35.36.26.95.41,1.77.41.87,0,1.5-.16,1.92-.5.42-.32.63-.82.63-1.51,0-.19-.02-.51-.05-.96v-.07l-.1-1.3v-.35c0-.2.06-.36.17-.5.12-.12.27-.2.48-.21v-.23h-2.06v.02Zm8,4.51l-.02-.04c-.21-.51-.43-.94-.64-1.29-.21-.35-.44-.65-.67-.89.43-.25.74-.47.91-.69.18-.21.26-.45.26-.71,0-.3-.11-.52-.31-.66-.21-.15-.52-.22-.96-.22h-4.07v.23c.16.03.27.09.32.18.06.11.09.33.09.67v3.34c0,.35-.03.57-.09.67-.05.09-.16.16-.32.18v.24h2.62v-.24c-.16-.02-.27-.09-.33-.18-.06-.1-.09-.32-.09-.67v-1.46l.33-.1c.35.34.63.71.87,1.13.22.41.34.73.34.95,0,.08-.02.14-.07.19-.04.06-.12.11-.23.14v.24h2.7v-.24c-.21-.03-.44-.29-.64-.77Zm-2.28-2.61c-.24.2-.58.35-1.01.44v-1.34c0-.2.05-.33.13-.38.09-.04.24-.07.48-.07.26,0,.45.05.57.15.13.09.18.24.18.46,0,.27-.12.52-.35.74Zm5.39-1.49c.06-.09.16-.15.33-.18v-.23h-2.63v.23c.16.03.27.09.34.18.06.11.08.33.08.67v3.34c0,.35-.03.57-.08.67-.06.09-.18.16-.34.18v.24h2.61v-.24h.01c-.16-.02-.26-.09-.32-.18-.06-.1-.09-.32-.09-.67v-3.34c0-.34.03-.56.09-.67Zm.29-2.63c-.09-.08-.2-.12-.34-.12-.1,0-.2.02-.29.08-.1.05-.22.16-.37.3l-1.18,1.2h.48l1.37-.67c.16-.08.27-.15.35-.22.07-.07.11-.16.11-.26,0-.12-.04-.22-.13-.31Zm6.18,7.34c-.1-.09-.2-.32-.32-.66l-1.32-3.71c-.02-.08-.03-.13-.04-.16-.01-.04-.01-.07-.01-.1,0-.06.02-.1.06-.15.05-.04.1-.07.18-.1v-.23h-2.65v.23c.09.03.14.07.18.12.04.04.05.09.05.15,0,.04,0,.08-.01.11-.01.05-.03.09-.04.12l-1.34,3.51c-.15.4-.3.66-.42.79-.12.13-.28.2-.47.23h.01v.24h1.95v-.24c-.15,0-.26-.02-.34-.09-.07-.07-.11-.16-.11-.3,0-.06.01-.14.04-.24.02-.1.05-.2.1-.33l.34-.91c.58.03,1.06.19,1.45.47.37.26.56.58.56.93,0,.14-.04.24-.1.32-.07.07-.18.12-.34.14v.24h2.96v-.24c-.15.02-.27-.04-.37-.14Zm-3.27-2.17c-.2-.05-.43-.11-.67-.13l.6-1.59.63,1.98c-.16-.1-.35-.2-.56-.26Z"/>
  </g>
  <g>
    <path class="cls-1" d="m53.34,19s.33-.22.63-.43.69-.88.69-.88c0,0-3.5.09-3.31-.05s.82-1.43.63-1.33-.43-.05-.43-.05c0,0,.35-.59.57-1.33.21-.75.35-2.75.27-2.57-.08.19-.41.26-.41.26,0,0,.03-.1.05-1.51.03-1.42-.4-1.31-.84-1.69-.44-.38.03-1.89-.24-1.65s-.76,1.25-.76,1.25c0,0,.13-3.15-2.63-6.8-2.75-3.64-4.08-1.82-4.39-1.36-.46.35-1.09-.4-1.11-.36l-.11.47c-.85.07-1.73-.23-2.16-.85.05,2.02,1.38,2.75,1.38,2.75,0,0-.32.05-.45.19.07.32.54.71,1.55,1.41-.27,1.48-2.77,1.61-4.32-.54-.33-.66-.78-.59-.96-.55.25-.71.13-1.43-.49-1.78-.85-.21-1.66-.06-1.84.66-.16-.11-.21.09-.24.1-1.5.71-1.13,1.03,0,1.13.29.03.65.24.55.35-.18.06-.23.43-.12.64-.06.14.31.37.15.42-.48.16-.54,1.03-.33,1.16-1.22.07-2.13-.09-2.98-1.58,1.02-.69,1.49-1.08,1.57-1.41-.13-.14-.45-.19-.45-.19,0,0,1.33-.72,1.38-2.75-.43.62-1.3.92-2.16.85l-.1-.47s-.65.71-1.1.36c-.31-.45-1.65-2.28-4.4,1.36-2.76,3.65-2.63,6.8-2.63,6.8,0,0-.49-1.01-.77-1.25s.19,1.27-.24,1.65c-.44.37-.88.26-.85,1.69.03,1.4.05,1.51.05,1.51,0,0-.33-.07-.41-.26-.09-.18.04,1.81.27,2.57.21.74.58,1.33.58,1.33,0,0-.25.16-.44.05-.19-.1.44,1.19.63,1.33.19.14-3.32.05-3.32.05,0,0,.38.67.68.88.31.21.63.43.63.43l-1.34.02s.44.78.93,1.01c.49.24,1.56.5,2.35.61s1.69.16,1.88.13c.2-.02.38.48.38.48,0,0-2.76-.16-3.36.32s-.16.88,0,1.25.71,1.17.63,1.65c-.08.49-.11.74.39,1.01.49.26,1.09.4,1.25.35h.01c.04.25.08.5.1.74.02.16.03.32.02.46,0,.04-.01.07-.02.09l-.04.11-.08.23c-.09.32-.15.69.01,1.03.15.34.47.55.78.68.32.13.64.19.97.24,1.29.19,2.59.22,3.88.15.65-.04,1.29-.1,1.93-.21.2-.03.39-.08.59-.12,0,0,0,0,0,0,.03.04.04.05.06.06.08.06.15.1.23.14.31.17.62.33.96.46.3.1.6.18.93.19-.04.24-.07.53-.08.82h0v.02c.03.16.07.31.2.44.06.06.16.11.25.12s.18-.03.25-.06c.24-.15.49-.26.74-.42.04-.03.08-.06.12-.11h0c.08.12.2.2.35.22.08,0,.12,0,.17,0h.75c.4-.02.8-.04,1.2-.06.21,0,.36-.17.41-.35,0,.05.03.11.07.15.05.06.11.11.17.15.25.15.5.27.74.42.07.03.15.07.25.06s.19-.06.25-.12c.13-.13.17-.29.2-.44h0v-.02c0-.29-.04-.57-.09-.82.32,0,.63-.08.93-.19.35-.13.65-.29.96-.46.08-.04.16-.09.23-.14.02-.02.04-.02.06-.06h0c.2.03.4.08.6.11.64.11,1.28.17,1.93.21,1.29.07,2.59.04,3.88-.15.32-.05.65-.11.97-.24.31-.13.63-.35.78-.69.15-.35.09-.73,0-1.04-.04-.16-.12-.33-.12-.43,0-.14,0-.3.03-.46.03-.24.07-.49.11-.73.26-.02.7-.15,1.08-.36.49-.26.47-.52.38-1.01-.08-.48.47-1.28.63-1.65.16-.38.6-.77,0-1.25s-3.36-.32-3.36-.32c0,0,.19-.5.38-.48.19.03,1.1-.02,1.89-.13.78-.11,1.85-.38,2.34-.61.5-.23.94-1.01.94-1.01h-1.31ZM33.74,3.11s-.19-.22.4-.39l.26.29s-.58.15-.66.1Zm20.22,14.84c.34-.18-.37.85-1.63.93l-.26-.08.16-.12h-1.37s-.13-.15,0-.19c.15-.05,1.79,0,1.97-.15.22-.14-1.97-.04-1.97-.04,0,0-.11-.2.05-.22,0,0,2.72.01,3.05-.13Zm-2.35-1.41c-.56,1.68-1.71,2.24-1.92,2.26-.2,0-.06-.32-.04-.37-.68.83-.92.72-.92.72.37-.69,2.05-2.06,2.16-2.15-.46.14-2.57,2.04-2.57,2.04.15-.96,2.05-1.99,2.05-1.99-.58-.15-1.58.93-1.71,1.1-.13.17-.29-.07-.29-.07.68-.81,2.16-1.62,2.24-1.55.11.11,1,.01,1,.01Zm-3.35-.15c-.03.52.03,1.58.03,1.58,0,0-.29-1.73-.45-1.71-.15.03-.02.49-.13.49,0,0-.17,0-.2-.83,0,0,.29-1.65.13-1.77.23.05,1.42.36,1.66,2.45,0,0-.15-.44-.29-.47-.11,0,.18.54-.11.81,0,0,0-.74-.07-.69-.11.08.05.87-.06.97-.13.07-.42.04-.34-1.16,0,0-.14-.84-.29-.84-.19,0,.15.66.12,1.17Zm-.47,1.81c.12.89-.16.71-.16.71.02-.96-.19-.71-.19-.71,0,0-.1.12.03.4.11.24.08.61,0,.68-.05.08-.23-.74-.23-.74-.03-1.47-.29-1.53-.29-1.53-.03.23.13,2.15.05,2.1-.05-.05-.1-.98-.1-.98l-.14-.03-.07.34s-.03,0-.18-.51c-.18-.51-.03-.88-.03-.88.4-1.28.58-1.33.55-1.13-.02.2.79,1.38.89,1.53.08.15,0,.47,0,.47l-.17-.02s.02.16.04.3Zm-.53,2.28s.08.05.08.1-.03.1-.08.1c-.02,0-.08-.05-.08-.1,0-.04.06-.1.08-.1Zm-.74-.86c-.18.07-.16-.18-.23-.54-.05-.37.12-.74-.11-.76-.21-.04-.13.35-.13.35.16,1.61-.02,1.33-.02,1.33,0,0-.06-.24-.06-.61-.03-.35-.1-.22-.15.03-.03.24-.08.43-.19.28-.13-.11-.03-.8-.03-.8.4,0,.29-1.26.29-1.26.21-.13.74,1.05.79,1.16.05.1.13.05.11.74-.03.68-.22.45-.22.45,0,0,.12-.46-.05-.37Zm.29,4.74c-.11.11-.21.2-.31.28-.76.63-1.29.57-1.29.57.34-.07.84-.69.84-.69h-.13c-.19.28-.92.45-.92.45-.07-.04.47-.44.7-.61-.35.2-.92.16-.92.16-.02-.14.77-.42.77-.42,0,0,0-.14,0-.18,0,0,0,.03,0,.06,0,.17-.79.1-.79.1l.37-.35c-.12-.17-.53.19-.53.19l-.12-.05c.22-.58,1.32-.75,2.06-.8.1,0,.2,0,.28,0,.23,0,.39,0,.39,0,.16.11-.05.92-.05.92-.12.14-.24.27-.35.38Zm.24.95s-.23.12-.32-.03h0c-.03-.1,0-.19.03-.26.03-.06.08-.09.11-.08,0,0,.05.19.11.19.04.01.07.18.07.18Zm-.51,0c-.07,0,0,.14-.07.14-.02,0-.03,0-.05-.02-.07-.05-.14-.18-.1-.27.03-.09.07-.15.15-.17.03,0,.06-.02.11-.02,0,0,.05.31-.04.34Zm-2.56-.88c.04.63-.08.61-.08.61-.05-.5-.32-.78-.32-.78.05.52-.13,1.18-.08.83.03-.32-.34-.55-.34-.55l-.05.67-.08-.35-.18.03s-.06-.09-.03-.09c.05,0,.16.03.11-.17-.05-.19-.14-.32-.14-.32l.19.05c0-1.48.32-1.43.48-1.38.15.07.82.88.82.88v.27c.7.73.29,1.21.29,1.21l-.27-.18c.12-.59-.32-.73-.32-.73Zm1.7-1.46c0,.09-.37.12-.29,0,.1-.13-.11-.52-.11-.52,0,0-.27-.14-.13.1.13.25-.08.22-.08.22l-.05-.17s-.09-.41-.1-.41v.04c.02.22-.1.29-.1.29.15.11,0,.28,0,.28.02.24-.17.09-.17.09.13-.45-.12-.74-.12-.74l-.03,1.11-.13-.02.03-1.63s-.19-.12-.21.49c-.02.62-.2.58-.2.58-.08-1.69.5-1.98.5-1.98,0,0,.05.64.71,1.24.64.64.48.96.48,1.03Zm-1.64-2.08c-.46.74-.6,1.39-1.01,2.29-.35.75-.44,1.35-.39,2.06-.57-.04-1.15-.06-1.73-.09-1.29-.06-2.58-.11-3.87-.13-1.85.06-3.69.16-5.54.3-.04-.29-.19-1.27-.32-1.73-.15-.54-.67-1.21-.79-1.43-.12-.22-.44-1.33-.59-1.67-.16-.34-.2-.58-.35-.87-.02-.05-.05-.09-.08-.14.12-.16.25-.32.38-.48.17-.22.35-.44.52-.67.17-.23.36-.42.54-.63.66-.64,1.48-1.01,2.35-1.26h0c.18-.05.36-.1.55-.15.09-.02.18-.04.28-.06h0c1-.21,2.06-.22,3.08-.15.9,0,1.83,0,2.74.05.08,0,.17,0,.25,0h0c.06,0,.12,0,.18,0h0c.08,0,.15,0,.23.02.47.04.9.07,1.33.22.07.03.15.06.22.09.5.23.95.57,1.35.95.53.51.99,1.09,1.42,1.7-.25.44-.28,1.03-.75,1.76Zm-12.88,3.91s-.03.09-.03.09l-.18-.03-.08.35-.05-.67s-.37.23-.35.55c.06.35-.12-.32-.07-.83,0,0-.26.29-.32.78,0,0-.14.03-.09-.61,0,0-.44.14-.31.73l-.27.18s-.42-.47.3-1.21v-.27s.66-.81.81-.88c.16-.05.48-.1.48,1.38l.18-.05s-.08.12-.14.32c-.04.19.06.17.12.17Zm-1.95-.72s-.79.07-.79-.1c-.03-.2,0,.12,0,.12,0,0,.79.27.76.42,0,0-.57.04-.91-.16.23.17.75.57.7.61,0,0-.74-.17-.92-.45h-.13s.5.62.84.69c0,0-.37.04-.95-.32-.04-.02-.08-.05-.12-.08-.03-.02-.06-.04-.09-.07-.24-.18-.5-.43-.79-.77,0,0-.21-.81-.06-.92,0,0,.29,0,.68.02.03,0,.06,0,.1,0,.07,0,.15,0,.23.02.7.07,1.54.27,1.73.77l-.14.05s-.39-.37-.52-.19l.38.35Zm-1.55,1.22c-.03.08-.1.16-.16.16-.08,0,0-.14-.08-.14-.08-.03-.03-.34-.03-.34.14,0,.19.05.25.15,0,0,.01.02.02.04.02.03.01.08,0,.13Zm-.43-.02c-.08.15-.32.03-.32.03,0,0,.02-.17.07-.17.06,0,.11-.19.11-.19.1-.03.22.17.14.33Zm.56-6.96c-.2.02-.05.4-.11.76-.08.36-.05.61-.23.54-.16-.09-.05.35-.05.35,0,0-.18.24-.2-.45-.03-.69.05-.64.1-.74s.58-1.29.79-1.16c0,0-.11,1.26.29,1.26,0,0,.11.69-.02.8-.11.15-.16-.04-.18-.28-.06-.25-.14-.38-.16-.03,0,.37-.06.61-.06.61,0,0-.18.28-.02-1.33-.02.01.06-.38-.15-.33Zm-.77-1.31s-.26.05-.29,1.53c0,0-.18.82-.23.74-.08-.08-.11-.44,0-.68.12-.28.02-.4.02-.4,0,0-.21-.24-.18.71,0,0-.29.17-.16-.71.02-.14.04-.24.05-.32l-.18.02s-.08-.33,0-.47c.11-.15.92-1.32.89-1.53-.02-.19.16-.15.56,1.13,0,0,.16.37-.03.88-.15.49-.18.51-.18.51l-.07-.34-.13.03s-.06.93-.11.98c-.09.07.06-1.85.04-2.08Zm-.24,3.58s-.05.1-.08.1c-.05,0-.08-.05-.08-.1s.03-.1.08-.1c.03-.01.08.05.08.1Zm-1.08-4.2c-.02-.51.32-1.18.14-1.15-.16,0-.29.84-.29.84.07,1.2-.21,1.23-.34,1.16-.1-.1.05-.89-.05-.97-.08-.05-.08.69-.08.69-.29-.27,0-.81-.1-.81-.13.03-.28.47-.28.47.24-2.11,1.44-2.41,1.66-2.45,0,0,.01,0,.02,0,.03,0,.02,0-.02,0-.17.1.12,1.77.12,1.77-.02.83-.21.83-.21.83-.1,0,.03-.46-.13-.49-.15-.02-.44,1.71-.44,1.71,0,0,.04-1.08,0-1.6Zm-1.42-2.21l.21-.02s-.04-2.31.11-2.29c0,0,.37,3.39-.24,3.52,0,0-.34-.12-.18-.58.18-.5.1-.63.1-.63Zm1.5-5.24l.39-1.33s-.13,2.45-.34,2.41c-.21-.07-.53-1.92-.37-2.07.16-.17.32.99.32.99Zm.06-3.72c.18.22-.03,1.85-.27,1.25-.24-.56.27-1.25.27-1.25Zm.97,1.23l.23-1.1.19.07c-.19,2.22-.24,2.34-.35,2.31-.1-.02-.37-.51-.37-.51-.35-1.31.58-2.86.58-2.86l.05.22c-.52,1.29-.33,1.87-.33,1.87Zm.02,3.06c.13,0-.25-.03-.25-.03,0,0,.34-.46.54-.46.22,0-.83,1.05-.7,1.95,0,0-.13.12-.28.25.05-.05.09-.11.11-.17.28-.96-.45.21-.51.32l.04-.09s.58-1.73,1.05-1.77Zm-.49,3.89s-.37.64-.47.71c-.08.07.15-.71.23-.94.05-.21-.47.27-.53.32l.05-.07s.69-1.75.82-1.77c.14,0-.23-.03-.23-.03,0,0,.29-.51.53-.51.2,0-.53,1.4-.4,2.29Zm-.43-1.53c.19-.07.26.05.26.05l-.26.16s-.16-.11,0-.21Zm-.05-.44s.16-.11.27-.21c-.14.15-.32.26-.27.21Zm.08.79c.02.12-.16.39-.3.24,0,0-.1-.35-.03-.37.13-.03.3.02.33.13Zm.14-5.64c-.34-.15.24-1.23.24-1.23,0,0,.1,1.4-.24,1.23Zm-.87,7.68s.24-.49.24-.49c.05.54-.24.56-.24.49Zm.05-6.48c-.1.15-.26.47-.39.37-.13-.09.13-.41.15-.58.05-.15.19-.59.19-.59l.26.41s-.11.27-.21.39Zm-.39,1.23c.26-.1.2,2.22.2,2.22l.19-2.51s.48,4.36-.1,4.17c-.56-.13-.56-3.81-.29-3.88Zm3.39,8.92c-.08-.38-.08-.69-.08-.69,0,0-.38.19-.47.31-.08.13-.08-1.06-.38-1.54-.31-.48-.36-.32-.66-.75-.31-.43-.36-1.52,0-2.11.29-.47.34-.56.35-.57l-.57.31s.41-1.17.69-1.59c.27-.43.19-.45.19-.45,0,0-.41-.21-.6-.13s.06-.74.33-1.17c.28-.42.36-.64.55-.64.2,0-.55-.05-.55-.05l.17-.43s.05.13.24.03c.2-.1.27-.3.27-.43s.06.16.36.16.27.5.55.64c.27.13.51.23.71.21.19-.03.05.69.57.69s.54-.05.71-.18c.17-.13-.03.51.33.56s.44.05.66-.03.03.67.41.7c.39.02.45-.03.66-.1.21-.09.33.21.65.1.33-.1.39-.19.39-.19,0,0,.22.64.65.61.44-.01.46,0,.44.21-.03.22-.84.33-.96,1.65-.11,1.33.24,2.19-.3,2.4-.55.21-1.15-.11-1.37.18-.21.29-.19.75.06.8.1.02.18.02.26,0-.66.26-1.29.63-1.82,1.11-.41.41-.75.86-1.1,1.29-.11.14-.22.27-.33.41-.03-.05-.07-.11-.1-.16-.03-.04-.05-.08-.07-.12,0,0,0-.02-.02-.03,0,0,0-.02-.02-.03-.18-.29-.24-.35-.43-.35-.24,0-.29-.27-.37-.64Zm-.4-15.08c.11.03.3-.41.3-.41l.16.22c-.14.76-.79,1.08-.79,1.08-.41-.56.47-1.78.47-1.78.16.16-.24.88-.14.89Zm.93-.65c.1.02.23-.67.57-.57l.05.33s-.58.67-.71.7c-.12.05-.54-.55.09-1.14.13-.14-.12.65,0,.68Zm.76.52c.08-.05.23-.64.42-.67.16-.05,0,.59,0,.59,0,0-.5.73-.71.66-.22-.05-.11-1.08.29-1.18,0,0-.05.61,0,.6Zm3.47,6.22c-.2.02-.18-.79-.18-.79l.21.13.29-.13s-.12.76-.32.79Zm.64.14s-.08,1.4-.48,1.5c-.4.1-.34-1.3-.34-1.3l.21-.05.1.67s.13-.52.13-.67c.01-.17.38-.15.38-.15Zm-.79-1.47c-.03.49-.9,1.03-.9,1.03,0,0-.13-.26-.19-.39.19.26.77-1.02.77-1.02,0,0,.37-.13.32.38Zm-.79,2.92c-.21-.06-.1-1.59-.1-1.59,0,0,0-.13.13-.19.13-.05.34.61.34.61,0,0,.16-2.02.24-.49.05,1.52-.42,1.72-.61,1.66Zm-1.17-1.94l.34-.12s-.1.56.03.56c.14,0,.26-.76.26-.76,0,0,.14.24.23.59.11.36-.26.93-.62,1.03-.36.11-.24-1.3-.24-1.3Zm-.33-.07c-.21-.1-.03-1.28-.03-1.28.24-.04.18.97.26.91.08-.07.08-.7.08-.7,0,0,.15-.13.23.17.06.26-.33,1-.54.9Zm.95-.66c-.08,0,.21-1.06.21-1.06l.16.51.38-.29c-.05.62-.67.84-.75.84Zm-.58-.55c-.4-.21-.4-.61-.21-.69.21-.1.24-.5.35-.5.07,0,.14.22.15.38.14-.16.4-.38.4-.38,0,0-.28,1.42-.69,1.19Zm-.24-.86c-.26-.05-.21-1.03-.21-1.03,0,0,.24-.37.19-.24-.08.14,0,.75.1.73.11-.02.18-.76.18-.76l.21.21s-.21,1.16-.47,1.09Zm-.84-.33c-.64-.11.21-1.62.21-1.62l-.06.86c.24,0,.56-2.11.56-2.11l.13.25s-.21,2.75-.84,2.62Zm-1.22.58c.13-.03.29-2,.5-2.07.21-.05,0,1.6-.08,1.79-.5,1.53-.92,1.33-.92,1.33,0,0-.24-.96-.06-1.43,0,0,.35-1.5.61-1.5.3.01-.17,1.93-.05,1.88Zm.66-.45c.32.14-.29,1.48,0,1.46.32-.06.42-1.19.45-1.39.03-.2.23-.02.23-.02.71,1.04-.97,2.44-.97,2.44-.55-.05.29-2.49.29-2.49Zm.4,1.83h.28s-.1.73-.02.83c.05.1.13-.59.13-.59,0,0,.24.07.27.19.05.13-.03,1.03-.38.99-.34-.02-.39-1.21-.28-1.42Zm-.29-3.52c-.15-.15.24-.99.24-.99.21.22-.02.58-.02.58.34-.24.45-1.13.45-1.13l.26-.06c-.09,1.4-.75,1.72-.93,1.6Zm-.66-1.63c.08,0,.23.17,0,.28-.23.09-.35,1.08-.35,1.08.18.12.4-.67.53-.78.13-.13.24.25.24.25-.24,1.15-.87.93-.87.93-.39-.9.45-1.76.45-1.76Zm-.79.76c.19,0-.05.59-.05.59-.29.27-.29,1.41-.29,1.41,0,0,.21-.47.31-.64.11-.15.48-.57.35.1-.13.66-.53,1.28-.7,1.25-.22-.04-.08-1.22-.08-1.22l-.21-.15c-.2-.65.67-1.34.67-1.34Zm6.08,6.49c-.42.13-.34-1.98-.34-1.98l.4.49s0,.49.05.59c.08.1.03-.47.19-.59.12-.15.33,1.31-.3,1.49Zm.61.21s.26.54-.21.65c-.47.08-.37-.59-.37-.59l.37.14.21-.2Zm3.74-.37c.1-.18.18.09.18.09-.11.02-.18.45-.2.55-.03.1.13.17.13.17l.03.3c-.19.1-.3-.17-.3-.17,0,0,.17-.05.04-.15-.13-.13-.04-.39-.04-.39.19-.03.16-.4.16-.4Zm1.12.57l.37-.14s.1.66-.37.59c-.47-.1-.21-.65-.21-.65l.21.2Zm.11-1.9c.16.12.11.69.18.59.05-.11.05-.59.05-.59l.4-.49s.08,2.11-.34,1.98c-.63-.18-.42-1.64-.29-1.49Zm-.34.12c-.34.07-.32-1.22-.18-1.25,0,.01.5,1.19.18,1.25Zm-.1-1.59c-.26.04-.16-.27-.16-.27.23.02.42.22.16.27Zm-.24,3.51c-.08-.07,0-.32,0-.32.19.16.08.4,0,.32Zm.05,4.86s-.15.32-.5.07c-.37-.21,0-.32.08-.32.06,0,.82.02.82.02,0,0,.05-.34-.03-.52-.08-.15-.45-1.05-.29-1.42l.26.26s.4,1.8,1.14,1.95c.33.06.27.43-.08.41-.14,0-.37.02-.43-.06,0-.15.1-.33.1-.33l-1.07-.06Zm.77-1.7s-.06.04-.14.02c-.08-.02-.16-.94-.44-.84-.32.07-.55.61-.55.61,0,0-.06-.45.34-.83,0,0-.21-.12-.29-.05h0s.25-.26.25-.26c0,0-.18-.15-.32-.12-.1.05.05-.67.39-.72,0-.01,1.21.76.77,2.19Zm-1.21-2.66c.12.1.12.37.02.31-.11-.04-.02-.31-.02-.31Zm-.11.46c-.11-.04-.03-.3-.03-.3.14.11.14.35.03.3Zm.15-1.35c.19.14.08.39,0,.32-.07-.07,0-.32,0-.32Zm.27-.24c-.07.04-.23.08-.23.08,0,0-.08-.21.02-.26.11-.04.15-.09.21-.11.08-.03.11.26,0,.29Zm-.34-.3s-.06-.13.05-.17c.1-.06.31-.2.34-.22-.03.04-.25.39-.39.39Zm-.31,1.85c.13.09.13.36.02.32-.11-.05-.02-.32-.02-.32Zm0,.89c-.07-.08,0-.3,0-.3.2.15.09.37,0,.3Zm.07,1.15c.33.05.46.24.6.67.14.42,0,.54-.31.58-.3.05-.41.11-.52.3-.11.18-.02.64.31.64l-.08.02c-.58-.03-.66-.03-1.24-.02-.44-.04-.89-.05-1.33-.03.2-.11.24-.45.16-.6-.12-.19-.22-.24-.53-.3-.3-.05-.44-.16-.3-.58.13-.43.27-.62.6-.67.32-.05.35-.13,1.31-.45.97.31,1,.39,1.33.44Zm-4.36,2.35s-.05.08-.12.11c-.08.03-.14,0-.19-.04-.14-.13-.17-.48-.17-.48.73-.15,1.13-1.95,1.13-1.95l.27-.26c.16.37-.21,1.27-.29,1.42-.08.18-.03.52-.03.52,0,0,.76-.02.81-.02.09,0,.46.1.09.32-.35.25-.5-.07-.5-.07l-1.08.07s.14.23.08.38Zm1.38-3.63c-.14-.02-.32.13-.32.13,0,0,.22.24.25.27,0,0,0,0,0-.01-.09-.08-.29.05-.29.05.39.39.34.83.34.83,0,0-.23-.54-.56-.61-.29-.1-.37.81-.45.84-.08.02-.13-.02-.13-.02-.44-1.43.77-2.2.77-2.2.34.05.51.77.4.72Zm-2.32,3.64c-.08-.07,0-.32,0-.32.18.15.07.4,0,.32Zm-.4.1c-.23-.02-.16-.3-.16-.3.05-.12.24.03.24.03,0,0,.13-.2.18-.03.06.18,0,.33-.26.3Zm-3,7.1l-.13.02-.03-1.11s-.26.29-.13.74c0,0-.18.15-.16-.09,0,0-.16-.17,0-.28,0,0-.13-.07-.11-.29v-.04s-.1.41-.1.41l-.05.17s-.22.03-.08-.22c.13-.25-.14-.1-.14-.1,0,0-.2.4-.1.52.08.12-.29.09-.29,0,0-.08-.16-.4.5-1.02.66-.6.71-1.24.71-1.24,0,0,.58.29.49,1.98,0,0-.18.03-.2-.58-.03-.61-.21-.49-.21-.49l.03,1.62Zm11.32-7.52s.07.25,0,.32h0s-.04.02-.06,0c-.04-.05-.06-.21.07-.32Zm.13.12c.05-.17.19.03.19.03,0,0,.18-.15.24-.03,0,0,.05.22-.1.28-.02,0-.04,0-.06.02-.14.02-.22,0-.26-.08-.03-.05-.03-.13-.01-.22Zm2.46,1.44c-.42-.38-.9-.7-1.43-.93-.07-.03-.14-.06-.2-.08.07-.17.04-.44-.11-.64-.23-.29-.82.02-1.37-.18-.55-.22-.19-1.07-.3-2.4s-.93-1.44-.96-1.65,0-.22.44-.21c.44.03.65-.61.65-.61,0,0,.06.09.38.19.33.11.45-.19.66-.1.22.07.27.12.66.1.39-.03.19-.77.41-.7.22.08.3.08.66.03.35-.05.16-.69.33-.56.16.13.19.18.71.18s.38-.72.57-.69c.2.02.44-.08.71-.21.27-.14.25-.64.55-.64s.36-.29.36-.16.08.33.27.43c.19.11.25-.03.25-.03l.16.43s-.74.05-.54.05c.18,0,.26.22.54.64.27.43.52,1.25.33,1.17s-.6.13-.6.13c0,0-.08.03.19.45.27.43.68,1.59.68,1.59l-.57-.31s.06.1.36.57c.36.59.3,1.68,0,2.11s-.36.27-.66.75-.3,1.68-.38,1.54c-.08-.12-.47-.31-.47-.31,0,0,0,.31-.08.69-.08.37-.14.64-.36.64-.18,0-.25.06-.42.33-.42-.57-.87-1.13-1.42-1.61Zm.91-15.17c.4.1.5,1.13.29,1.18-.21.07-.71-.66-.71-.66,0,0-.15-.64,0-.59.18.03.34.62.43.67.05.01-.01-.6-.01-.6Zm.76-.59c.63.59.21,1.19.07,1.14-.13-.03-.7-.7-.7-.7l.05-.33c.35-.1.48.59.58.57.11-.04-.12-.83,0-.68Zm.79.43s.87,1.21.47,1.79c0,0-.65-.33-.78-1.08l.16-.22s.18.44.29.41c.1-.02-.29-.74-.14-.9Zm.43,4.44c-.19.03-.59-.59-.72-1.25s.24-.25.35-.1c.1.17.32.64.32.64,0,0,0-1.13-.29-1.41,0,0-.23-.59-.05-.59,0,0,.87.69.69,1.33l-.21.15s.12,1.18-.09,1.23Zm-2.42,1.68h.29c.1.21.05,1.4-.29,1.43-.35.04-.43-.86-.38-.99.03-.12.26-.19.26-.19,0,0,.08.69.13.59.08-.11,0-.84,0-.84Zm0-1.78s.2-.18.23.02.12,1.33.45,1.39c.29.02-.32-1.31,0-1.46,0,0,.85,2.44.29,2.49,0,.01-1.69-1.4-.97-2.44Zm.91.13c-.07-.19-.29-1.85-.07-1.79.2.07.36,2.04.49,2.07.13.05-.35-1.87-.06-1.87.26,0,.61,1.5.61,1.5.18.47-.05,1.43-.05,1.43,0,0-.41.18-.92-1.34Zm.77-1.75s-.63.21-.87-.93c0,0,.11-.38.24-.25.14.12.35.91.53.78,0,0-.11-.99-.34-1.08-.24-.1-.08-.28,0-.28-.01.01.83.87.44,1.76Zm-1.33-.53s-.22-.37,0-.58c0,0,.39.83.23.99-.19.12-.85-.2-.93-1.6l.26.06s.12.89.45,1.13Zm-.44.35s.84,1.51.21,1.62c-.63.13-.85-2.62-.85-2.62l.13-.25s.31,2.11.55,2.11l-.04-.86Zm-1.18,3.97l.34.12s.13,1.41-.24,1.31c-.37-.1-.73-.67-.63-1.03.11-.35.24-.59.24-.59,0,0,.13.76.26.76s.03-.57.03-.57Zm.13-.86c.07-.3.23-.17.23-.17,0,0,0,.64.08.7.07.06.03-.95.26-.91,0,0,.18,1.19-.03,1.28-.2.11-.6-.63-.54-.9Zm.45-2.44c-.06-.12.18.24.18.24,0,0,.05.98-.21,1.03-.27.07-.48-1.09-.48-1.09l.21-.21s.08.74.19.76c.11.03.18-.58.11-.73Zm-.4.95c.11,0,.14.4.34.5.19.07.19.47-.2.69-.42.22-.68-1.19-.68-1.19,0,0,.25.22.39.38,0-.16.08-.38.15-.38Zm-.45,1.74c-.08,0-.72-.22-.73-.83l.36.29.16-.51s.3,1.05.21,1.05Zm-.26.39s.03-.06.04-.07c-.02.07-.22.47-.22.47,0,0-.87-.54-.9-1.03-.04-.52.33-.38.33-.38,0,0,.57,1.28.75,1.01Zm-.29,2.28c-.17.05-.66-.15-.6-1.66.08-1.53.24.49.24.49,0,0,.2-.66.34-.61.13.06.13.19.13.19,0,0,.11,1.53-.11,1.59Zm-.76-2.38s.02.82-.18.79c-.18-.03-.32-.79-.32-.79l.29.13.21-.13Zm-.45,1.08c0,.15.14.67.14.67l.1-.67.21.05s.05,1.4-.35,1.3c-.4-.1-.47-1.5-.47-1.5,0,0,.37-.02.37.15Zm6.57-6.33s.96,1.39.67,2.03c-.35.74-1.34-2.09-1.18-2.2.24-.12.55,1.31.82,1.18.25-.12-.59-.52-.31-1.01Zm.93,6.04s.16-1.16.32-.99c.16.15-.16,2-.36,2.07-.22.04-.35-2.41-.35-2.41l.39,1.33Zm-.04-3.72s.49.69.26,1.25c-.24.6-.45-1.03-.26-1.25Zm1.55,8.96s-.08.13.1.62c.16.46-.18.58-.18.58-.61-.12-.24-3.52-.24-3.52.16-.02.1,2.29.1,2.29l.22.03Zm-.87-1.29c-.58.18-.11-4.17-.11-4.17l.18,2.51s-.05-2.32.22-2.22c.26.07.26,3.75-.29,3.88Zm-.06,1.37c0,.07-.29.06-.23-.49,0,0,.27.44.23.49Zm.35-6.11c-.13.11-.29-.21-.4-.37-.1-.12-.21-.4-.21-.4l.26-.41s.13.45.18.59c.04.17.3.49.17.59Zm-1,5.96c-.11-.08-.48-.71-.48-.71.13-.89-.61-2.29-.4-2.29.23,0,.52.51.52.51,0,0-.37.03-.23.03.12.02.81,1.77.81,1.77l.05.07c-.06-.05-.58-.53-.53-.32.1.23.33,1.01.26.94Zm-.49.05s-.05,0-.02,0c.01,0,.02,0,.02,0Zm-.81-9.58l.05-.22s.93,1.55.58,2.86c0,0-.26.49-.37.51-.1.02-.15-.1-.34-2.31l.19-.07.24,1.1s.18-.58-.35-1.87Zm.58,4.9s-.39.03-.26.03c.48.04,1.06,1.75,1.06,1.75l.05.09c-.07-.11-.8-1.28-.53-.32.02.05.05.09.09.14-.13-.11-.23-.21-.23-.21.13-.89-.92-1.95-.71-1.95.19,0,.53.47.53.47Zm.66,2.39c.16.1,0,.22,0,.22l-.26-.16s.08-.13.26-.06Zm-.26-.7c.12.11.26.23.32.25.06.06-.17-.07-.32-.25Zm.24,1.05c.03-.1.21-.15.32-.13.08.03-.02.37-.02.37-.15.15-.33-.12-.3-.24Zm-.13-5.64c-.35.17-.24-1.23-.24-1.23,0,0,.58,1.08.24,1.23Zm3.76,5.43c-.05,1.58-.4,1.21-.4,1.21,0,0-.13-.4,0-.42s.21-.52.21-.56c0-.08-.16-.05-.16-.05,0,0-.29,1.03-.39,1.08-.11.05-.08-.45-.08-.45.68-1.1.37-1.55.37-1.55,0,.57-.48,1.08-.55,1.03-.06-.04.07-.48.07-.48-.47.14-.34-.67-.34-.67.5.11,1.05-1.41,1.05-1.41,0,0,.3.73.22,2.27Zm-.85-3.64s.05.02.03.32c-.07.56.32,1.27.34,1.22,0,.18-.4.7-.4.7,0,0,.05-.87-.11-.77-.16.12-.08.94-.1.99-.02.05-.11.37-.21.25-.1-.15.05-1.02.05-1.02,0,0-.07-.53.03-.61.11-.05.35-.58.16-.57-.16.03-.26.24-.24.47.05.22-.1.18-.1.18-.21-.77.55-1.16.55-1.16Zm-.1,6.54c-.09.06-.24.11-.34.11-.16.02-.18-.33-.18-.3,1.06-.47,1.83-1.89,1.83-1.89.14.05-.13,1.7-.44,2.66-.32.94-.65.94-.73.89-.05-.05.02-.33.02-.33.64-.63.38-.78.38-.78,0,0-.11.25-.51.67-.37.39-.26.05-.26.05,1.01-1.24,1.23-1.88,1.28-2.15-.2.43-1.12,1.65-1.33,1.88-.23.27-.29,0-.29,0,.24-.15.47-.61.57-.81Zm-.81-1.2s-.18-.07-.08-.21c.1-.17-.1-1.75-.1-1.75.1-.71-.29-3.1-.27-3.24.03-.17.32-.03.32-.03.7,3.53.13,5.23.13,5.23Zm-.19-5.61c-.35.1-.38-.24-.38-.37,0-.12.19-.25.35-.23.17.04.03.6.03.6Zm-.39-1.45c.1.02.15.57.15.57l-.32.07s.03-.1-.1-.35c-.13-.27.19-.32.27-.29Zm-1.37-3.38c1.21,1.88,1.29,3.2,1.29,3.2-.19.22-.35,0-.35,0,.13-.29-1.24-3-1.27-3.18-.02-.14.33-.02.33-.02Zm-5.77-2.32c.11-.03.9.4.9.4-.08.09-.34.07-.42.12-.05.05,0,.45,0,.45-.37-.04-.59-.95-.48-.97Zm-1.42,1.34c-.38-.42-.42-1.02-.42-1.02-.32-.66.05-.49.05-.49-.05.19.43.21.43.21,1.58.21,1.31.68,1.31.68-.24.05-.05,0-.21-.07-.16-.09-.37.05-.37.05.63.16.92.68.92.68-.43.17-1.29-.88-1.27-.54.03.33,1.19.8,1.04.87-.19.09-1.06-.4-1.06-.4,0,0,.63.57.54.61,0,.01-.59-.12-.96-.58Zm1.48,1.69c-.27.29-1.19-.91-1.09-.83.11.05.51-.14.96-.17.45,0,.31.43.31.43-.07.1-.55-.12-.55,0s.53.16.48.29c-.05.12-.19-.09-.27-.03-.08.08.16.31.16.31Zm-2.24,1.54c.09.02.21.14.19.32-.03.17-.32-.22-.32-.22,0,0,.06-.12.13-.1Zm-.16.39s.18.02.21.1c.03.07-.1.3-.21.24-.1-.04,0-.34,0-.34Zm2.9-2.64c.15-2.9,1.6-2.99,1.6-2.99,1.72-.28,3.37,2.65,3.37,2.65l-.26-.12c-1.47-1.59-2.21-1.55-2.21-1.55-.87-.07-1.03-.31-1.05-.43-.06.13-.4.3-.4.3.13.05-.05.57,0,.71.02.17-.48.62-.48.62,0,0-.11.34-.24,1.43-.13,1.08-.95,2.04-1.55,2.71-.61.66-1.79,1.42-1.79,1.42-.11-.33,1.03-.88.84-.95-.09-.02-.31.11-.52.27.03-.22.11-.57.11-.57,0,0-.29-.25-.39-.12,0,0-.11.17.02.3.08.06.2.25.25.4-.24.18-.48.39-.48.39-.2.05-.14-.25-.04-.57-.1-.22-.42-.71-.42-.71h.21c.09,0,.22.22.32.43.08-.18.14-.33.14-.33,2.57-.24,2.97-3.29,2.97-3.29Zm-3.39,2.17l.13.4s0-.42.16-.42c.18.02.08.89-.14.83-.18-.05-.42-.83-.42-.83.06-.06.27.02.27.02Zm-.58.96c-.08-.09.32-.32.32-.32.07.32-.28.42-.32.32Zm.08-1.2c.13.1.13.34.02.3-.08-.06-.02-.3-.02-.3Zm-.19.58c.13.1.13.37.03.32-.11-.04-.03-.32-.03-.32Zm-.5,1.86c-.1.05-.03-.18-.03-.18.21-.01,0-.61,0-.61.06-.07.34-.02.43.04.08.08-.26.7-.4.75Zm.42,0s-.15.84-.39.84c-.21,0-.38-.03-.38-.03,0,0,0-.67.77-.81Zm-.36-1.36c.02-.1.35-.1.35-.1l-.03.26s-.19.22-.3.22c-.11.01-.02-.38-.02-.38Zm-.16-.32c.1.1.1.35.02.3-.1-.05-.02-.3-.02-.3Zm0,.47c.13,0,.04.24.04.24-.13-.02-.29.43-.29.43-.07-.6.25-.67.25-.67Zm-.79-2.79c.16.11.26.33.26.33,0,0-.32.07-.45-.2,0,0,.03-.25.19-.13Zm-.43-.34s-.04.06-.05.09c-.04.07-.06.14-.07.21,0,.04,0,.07,0,.1,0,.16.03.28.03.28,0,0,.32.08.29.24-.05.17-.32.25-.42.1-.08-.14-.4-.33-.5-.57-.31-.29-.6-.7-.54-.66.04.02.12,0,.22-.02h0c0-.28.56-.59.63-.61.08-.02-.07-.32-.81.07,0,0-.27.15-.13-.07,0,0,.5-.27.84-.29.37-.05.79.76.52,1.13Zm-.89,1.8c-.23.05-.47-1.19-.37-1.23.34,0,.63,1.2.37,1.23Zm-.95-2.79l-.16-.02s-.19-.51,1.05-.51c0,0,.19.15.19.22-.03.08-.48-.07-.58.12-.11.19-.5.19-.5.19Zm.18,2.79l.15.37s.24-.11.38.37c.13.47.34.15.45.12.05-.03.24-.46.47-.86.07-.13.24-.13.32-.25.16-.22.13-.22.32-.44.26-.37.55-.2.55-.2-.07,2.71-1.34,2.57-1.65,2.62-.29.05-.92-.47-1.16-.87-.24-.42.17-.86.17-.86Zm-.52,2.28c0-.12.32,0,.21-.16-.1-.18.15-.7.15-.7,0,0,.24.5.48.7.1.07.29-.3.29-.3,0,0-.08.42-.06.42.21.02.4-.08.5-.11.14-.01.22-.29.22-.29l.07.29.27-.39s.02.07.1.14c.21.23.69-.83.79-.8.11,0,0,.54,0,.54-.39.45-.34.76-.23.78.13.03.37-.31.4-.16.02.14-.35.47-.21.47.13,0,.18.24.18.24,0,0-.15-.03-.23.06-.08.11.1.18.16.36.05.14-.24.37-.24.37.14.27.37-.22.37-.22.53.1.88-.54.88-.54.05.91-.61,1.08-.61,1.08,0,0,0-.47-.14-.41-.13.04-.13.41-.13.41-.12.07-.15.39-.15.39,0,0-.05-.12-.29,0-.21.12-.61,1.18-.61,1.18.08.15.51-.39.63-.35.16.06.37-.12.48-.19.1-.07.29-.09.29-.09,0,0,0-.81.11-.87.1-.07.47-.42.57-.36.13.04-.03.19-.03.19-.12.09-.47.51-.47.81,0,.27-.26.55-.61.6-.37.05-.37.32-.37.32l.68.03s.19.02-.04.15c-.27.12-.71-.12-.74-.08-.03.08-.62.4-.45.6.15.17.57-.22.57-.22,0,0,.13.24,0,.54-.1.32-.6.42-.6.42.55.37.9-.7.92-.82.03-.12.3-.24.37-.22.1.02-.07.22-.23.36-.16.13-.08.38-.08.38,0,0,.29-.03.38.05.1.07-.27.34-.27.34,0,0,.02-.27-.16-.14-.18.12-1.06.44-1.13.44-.08,0,.07-.44-.11-.37s-1.19-.62-1.28-.8c-.14-.16-.14-.48-.16-.8-.02-.34-.18-.52-.31-.94-.14-.42.18-.79.2-1.11.03-.3-.16-.48-.29-.49-.12-.03-.04-.61-.04-.73Zm3.28,1.88s.19-.08.19.02c0,.07,0,.35-.03.42-.04.07-.18.07-.2.17-.03.09-.18.12-.18.19,0,.11-.27.18-.29.11,0,0-.14-.36.39-.51,0,0,.24-.33.12-.4Zm-5.12-6.1c.1-.08-.82,1.11-1.08.83,0,0,.24-.23.16-.31-.08-.06-.21.15-.27.03-.06-.12.48-.16.48-.29,0-.12-.48.1-.56,0,0,0-.13-.43.32-.43.44.02.84.21.95.17Zm.34-2.16s.47-.02.42-.21c0,0,.37-.17.05.49,0,0-.05.61-.42,1.02-.38.46-.98.59-.98.59-.08-.04.55-.61.55-.61,0,0-.86.5-1.05.4-.17-.07,1-.54,1.03-.87.02-.34-.84.71-1.27.54,0,0,.29-.53.92-.68,0,0-.21-.15-.37-.05-.15.07.03.12-.2.07,0-.01-.27-.48,1.32-.69Zm-1.38-.05c.11.03-.1.93-.47.97,0,0,.05-.4,0-.45-.07-.05-.34-.02-.42-.12.01,0,.8-.43.89-.4Zm-2.15-.67s1.45.08,1.61,2.99c0,0,.39,3.05,2.94,3.28,0,0,.61,1.28.21,1.18,0,0-.79-.71-1-.66-.18.07.95.62.84.95,0,0-1.18-.76-1.79-1.42-.6-.67-1.42-1.63-1.55-2.71-.14-1.08-.24-1.43-.24-1.43,0,0-.51-.44-.48-.62.06-.14-.13-.66,0-.71,0,0-.35-.18-.4-.31-.02.11-.17.36-1.05.43,0,0-.74-.04-2.21,1.55l-.27.12S27.92.01,29.63.28Zm-3.61,2.99s.37-.11.35.03c0,.03-.04.12-.11.27.2-.39.42-.68.42-.68.29.49-.52.91-.26,1.03s.57-1.3.81-1.18c.16.11-.81,2.93-1.19,2.2-.15-.31-.06-.72.09-1.1-.4.85-1.16,2.43-1.06,2.64,0,0-.16.22-.34,0,0-.01.08-1.33,1.29-3.21Zm-1.37,3.38c.08-.03.4.02.26.3-.13.24-.1.35-.1.35l-.32-.07s.05-.56.16-.58Zm-.37.85c.16-.02.34.11.34.23s-.03.47-.37.37c0,0-.13-.56.03-.6Zm-.08.97s.29-.15.32.03c.02.14-.37,2.53-.27,3.24,0,0-.2,1.58-.1,1.75.1.14-.08.21-.08.21,0,0-.57-1.69.13-5.23Zm-1.07.22c-.03-.3.03-.32.03-.32,0,0,.76.39.55,1.16,0,0-.16.04-.1-.18.02-.23-.08-.44-.24-.47-.18-.02.05.52.16.57.1.08.03.61.03.61,0,0,.16.86.06,1.02-.1.12-.19-.2-.21-.25-.03-.05.05-.87-.1-.99-.16-.1-.11.77-.11.77,0,0-.4-.52-.4-.7,0,.05.4-.66.33-1.22Zm-.62,1.06s.55,1.51,1.05,1.41c0,0,.13.81-.34.67,0,0,.13.44.08.48-.08.05-.56-.46-.56-1.03,0,0-.32.45.37,1.55,0,0,.03.5-.09.45-.1-.05-.39-1.08-.39-1.08,0,0-.16-.03-.16.05,0,.05.08.54.22.56.13.02,0,.42,0,.42,0,0-.34.37-.4-1.21-.06-1.55.22-2.27.22-2.27Zm-.12,5.74c-.32-.96-.58-2.61-.45-2.66,0,0,.78,1.43,1.84,1.89,0-.03-.03.33-.18.3-.09,0-.25-.05-.34-.11.1.2.33.66.57.8,0,0-.05.27-.29,0-.2-.23-1.15-1.49-1.34-1.9.05.26.26.9,1.29,2.17,0,0,.1.35-.27-.05-.39-.42-.5-.67-.5-.67,0,0-.26.15.37.78,0,0,.08.28.03.33-.08.06-.41.06-.73-.88Zm-.03,1.05s.89.1,1,0c.08-.07,1.55.74,2.23,1.55,0,0-.15.25-.28.07-.14-.17-1.14-1.25-1.71-1.1,0,0,1.89,1.03,2.05,1.99,0,0-2.11-1.9-2.58-2.04.1.08,1.8,1.45,2.16,2.15,0,0-.24.1-.92-.72.02.05.16.37-.03.37-.21-.02-1.36-.59-1.92-2.27Zm-2.34,1.41c.32.14,3.05.12,3.05.12.16.02.06.22.06.22,0,0-2.19-.1-1.98.04.18.15,1.82.1,1.98.15.12.04,0,.19,0,.19h-1.38l.16.12-.27.08c-1.26-.06-1.96-1.1-1.62-.92Zm3.76,2.64s-2.79.02-3.58-1.23c0,0,1.31-.02,1.61-.19.29-.15.94-.13.94-.13l-1.01-.09s.35-.08.48-.08h1.27s.13.13.24.13c-.15.02-.62.09-.72.04-.13-.09-.08.1-.08.1l.22.07s-.43.06-.61.18c-.18.1.97.1,1,.31,0,0-2.08.09-2.16-.02-.07-.09.03.13.24.15.19.02,2.19,0,2.16.22,0,.22-.18.14-.18.14l-1.32-.05s.03.15.79.18c.77.02.87.07.87.07l-.16.2Zm-.18-1.33s1.95-.23,3.1.8c0,0-.24.07-.32,0-.05-.09.05.22.05.22,0,0-.89-.6-1.08-.54-.21.05,1.08.66,1,.91l-.29.03s-.85-1.04-1.74-1.14c0,0,1.87,1.11,1.68,1.45-.18.35-.05,0-.05,0,0,0-.47-.57-.76-.46-.3.1.44.42.42.46,0,0-.6.18-.71.08-.07-.12-1.54-1.59-1.3-1.81Zm.57,2.24h1.69l-.08.1h-1.61v-.1Zm1.77.27s1.06-.19,1.64-.47c.17-.08.31-.17.36-.26.13-.21.08-.04.02.13-.01,0-.01.03-.02.04-.03.09-.07.18-.07.2.04-.03.25-.18.38-.27.05-.04.08-.06.1-.07.08-.03.13.27.08.35-.08.07-.45.1-.42.49.05.39,1.08-1.11,1.11-1.19.02-.04.18.35-.06.66-.15.24-.74.74-1.08.96.13,0,.25,0,.21.05-.05.12-.37.38-.32.41.08.04.19.17.19.17,0,0-.11.02-.28.03-.07,0-.15,0-.23,0-.03,0-.07,0-.1,0-.28-.02-.56-.1-.65-.33,0,0-.63.1-.63,0,0-.12.13-.17.07-.22-.07-.07-3.1-.07-3.39-.14-.29-.05,1.81-.05,2.07-.17,0,0-1.89-.71-2.79,0,0,0-.23.08-.18-.05,0,0,.26-.46,1.63-.37,1.36.12,2.36.05,2.36.05Zm-.32,3.47l.03-.08-.44-.02.02-.22s-.13,0-.26.03c-.1.02-.03-.23.26-.43,0,0-.16-.07-.24.07l-.34.2s-.11-.2.13-.25c0,0,.03-.16.13-.16.11-.02.11-.18.3-.22,0,0-.19-.07-.32.12-.15.19-.24.19-.24.19h-.2s-.14-.19.29-.27c0,0,.39-.37.47-.34.1.02.29-.05.29-.05,0,0,.24-.37.37-.37.1.02.39.32.23.4-.19.1-.08.27-.08.27h.21s.13.05-.21.22c0,0-.05.1.03.12.11,0,.27,0,.24.07-.03.07-.45.43-.37.45h.4l-.32.29-.38-.02Zm.35.42l-.38-.02s-.36-.05-.36-.1c0-.07-.1-.14-.1-.14,0,0,.08-.1.47.07,0,0,.21.1.32.05.1-.03.05.14.05.14Zm-1.59-1.6s.14-.2.24-.2c.11,0,.15-.1.15-.1,0,0,.05.15,0,.24-.07.1-.12.06-.12.06l-.11.1-.16-.1Zm.32-1.46v.07h-2.34v-.1l2.34.03Zm-2.63-.04s-.06.07-.1.07c-.05,0-.11-.05-.11-.07,0-.05.06-.08.11-.08.04,0,.1.03.1.08Zm1.71-1.14s.07.02.07.07c0,.04-.02.1-.07.1s-.1-.05-.1-.1.05-.07.1-.07Zm-.34-.05c.08,0,.13.05.13.1s-.05.09-.13.09-.15-.04-.15-.09.07-.1.15-.1Zm-1.97.69c.02-.52.6-.57.6-.57l.13.07s-.11.13-.11.13c0,0-.24.02-.38.17-.1.12.03.02-.04.21-.07.19-.2,0-.2,0Zm.24.37s-.06-.05-.06-.1c0-.03.03-.07.06-.07.04,0,.07.05.07.07,0,.05-.03.1-.07.1Zm1.81,2.34c-.08.05.03.12.03.12l.09.02c0,.06.01.11.01.16l-.15.09.18.19s.01.04.01.07l-.17.02-.08.15c-.66-.02-1.03-.69-1.03-.69,0,0,.24-.27-.29-1.2-.55-.94-.31-.94-.31-.94l.07-.07.1.1c2.5-.12,2.97.17,2.97.17-1,.03-1.29.3-1.29.3,1.02-.23,2.06.23,1.45.09-.64-.12-1.45.28-1.45.28,0,0,1.23.17.81.15-.44-.02-.84.2-.84.2l-.05.14.25-.1s.14-.04.08.13c-.04.12-.42.25-.42.25l-.02.14s.18-.05.29-.09c.11-.03.07.09.07.09,0,0-.23.15-.31.23Zm.79.09s-.13-.04-.24-.07c-.11-.02.08-.33.13-.37.05-.05-.03-.23-.03-.23h.13s.07.34,0,.34c-.06.03-.06.15-.06.15l.07.18Zm8.93,4.83c-.32-.1-.66-.23-.98-.35-.06-.03-.13-.05-.18-.08h.05c.18-.02.35-.08.52-.13.02,0,.04,0,.05,0,.17-.03.34-.05.51-.07.05,0,.1,0,.15,0,.12.14.28.22.43.3.09.04.18.06.28.08.09.02.2.03.3.03.1,0,.2,0,.3,0s.2.05.3.06c.18,0,.35-.05.49-.17-.07.1-.18.17-.3.24-.29.16-.62.25-.94.26-.32,0-.66-.05-.98-.15Zm2.14,1.28c-.2.17-.48.25-.74.34-.12.03-.2,0-.26-.07-.07-.07-.12-.2-.14-.31,0-.25-.05-.5-.09-.79h.09c.22,0,.44-.07.64-.15.03,0,.06,0,.08-.02.15-.03.29-.09.42-.17.03-.02.06-.04.09-.06v.08c-.08,0-.12.04-.15.1,0,.04,0,.09,0,.12s-.05.05-.09.05c-.09,0-.14.04-.19.08-.04.05-.07.11-.09.21v.02c.11.05.2.03.27,0,.06-.05.11-.11.12-.2,0-.04.02-.08.05-.1.03-.02.07-.02.11-.03,0,.07,0,.14,0,.21v.12c-.08,0-.14,0-.17.06-.02.04-.02.09-.04.12s-.06.03-.1.03c-.09,0-.15.02-.21.06-.05.04-.09.11-.11.22v.02c.11.04.2.04.27,0,.06-.04.12-.09.14-.18.02-.04.04-.07.07-.09.04,0,.09,0,.13,0,0,0,.03,0,.04-.02,0,.06,0,.13.04.19-.05.07-.1.12-.16.17Zm.19-1.89v.05s-.04.08-.06.12c-.21-.02-.38,0-.56.02-.09.03-.18.07-.27.08-.09,0-.18-.02-.27-.06-.16-.09-.33-.17-.51-.23-.06-.02-.13-.04-.19-.05.64-.05,1.28-.07,1.92-.07-.04.04-.06.09-.06.14Zm2.8,1.54c0,.18-.18.33-.34.32-.4-.03-.8-.05-1.2-.05h-.6s-.15,0-.15,0h-.13s-.11-.04-.15-.09-.06-.12-.06-.19v-.3s0-.03,0-.04c0-.28.02-.56,0-.84v-.41s-.06.06-.06.06c0-.04.02-.07.02-.11h2.53s.06.12.07.19l.02.3c0,.2.03.4.03.6.03.17.02.38.02.57Zm.13-1.63s0-.03,0-.05c.64,0,1.27.02,1.91.07-.06,0-.11.03-.17.04-.18.07-.35.15-.51.23-.08.04-.18.07-.27.06s-.18-.05-.27-.08c-.18-.04-.35-.05-.56-.02h0c-.04-.07-.08-.16-.12-.25Zm1.39,1.94c-.03.11-.08.24-.14.31-.06.07-.14.1-.26.07-.26-.08-.54-.17-.74-.34-.11-.09-.16-.19-.15-.32v-.14c.02.07.06.11.11.13.04,0,.09,0,.13,0,.04,0,.05.05.07.09.03.09.08.14.14.18.07.03.15.04.25,0v-.02c-.01-.11-.05-.17-.1-.22-.06-.04-.12-.06-.21-.06-.04,0-.08,0-.1-.04-.02-.03-.03-.08-.04-.12-.04-.06-.11-.08-.23-.05h0s0-.16,0-.16v-.18s.09,0,.12.03.04.06.05.1c0,.09.06.15.12.2.07.04.16.06.26,0v-.02c-.01-.11-.04-.17-.08-.21-.05-.04-.11-.07-.19-.08-.04,0-.08-.02-.09-.05-.02-.03,0-.09,0-.12-.02-.05-.07-.08-.15-.1v-.08s.06.05.1.07c.13.08.27.13.42.17.04,0,.07,0,.11.02.2.08.41.13.62.14h.09c-.05.29-.09.54-.1.79Zm1.98-1.59c-.32.12-.66.24-.98.35-.32.09-.66.15-.99.14-.32,0-.65-.09-.94-.26-.12-.07-.22-.14-.29-.25.14.12.32.18.49.17.1,0,.2-.05.3-.06.09-.02.19,0,.3,0,.1,0,.21,0,.3-.03.09-.02.19-.04.28-.08.15-.07.31-.15.43-.29.05,0,.11,0,.16.02.18.02.37.04.55.07h0c.17.05.34.11.52.13h.04c-.06.04-.12.07-.18.09Zm8.36-4.23c-.02.15-.04.32-.07.47-.02.09-.03.19-.05.29-.04.22-.08.45-.1.68-.02.16-.03.33-.02.51.02.22.1.34.14.49.09.3.13.6.02.85s-.35.44-.63.55c-.28.11-.59.18-.9.24-.09,0-.17.03-.26.04-.51.08-1.03.13-1.55.16-.67.04-1.35.05-2.03.03-.2,0-.41,0-.61-.03-.32-.02-.63-.04-.94-.08-.12,0-.24-.03-.37-.05-.32-.04-.63-.11-.95-.17l-.42-.06c-.18-.02-.78-.11-.78-.11-.74-.05-3.24-.15-3.62-.14-.45,0-2.9.09-3.64.15,0,0-.62.08-.8.11-.13.02-.27.04-.4.06-.32.05-.63.12-.95.17-.18.03-.36.05-.54.07-.25.03-.51.05-.77.06-.2,0-.41.02-.61.03-.72,0-1.44,0-2.16-.04-.56-.03-1.12-.09-1.68-.18-.32-.05-.62-.12-.91-.23-.29-.11-.54-.29-.65-.55-.12-.25-.09-.57,0-.86l.07-.22h0s.04-.13.04-.13c.01-.05.02-.1.03-.14.01-.18,0-.34-.02-.51l-.03-.21v-.04s-.02-.1-.02-.15c-.03-.19-.07-.37-.1-.56-.03-.16-.06-.32-.08-.47-.01-.05-.01-.1-.02-.15h0v-.02c.07.09.15.22.26.31.06.06.13.11.2.16.07.05.14.09.22.12.3.15.63.22.95.27.65.09,1.3.07,1.95,0,.1,0,.2-.02.3-.03h.02s.11,0,.16-.02c.48-.06.96-.15,1.45-.19.65-.07,1.31-.12,1.96-.16.08,0,.16,0,.23,0,.55-.03,1.11-.06,1.66-.09,1.29-.06,2.58-.12,3.86-.14,1.87.07,3.75.17,5.62.31.7.05,1.4.11,2.09.18.32.03.64.07.95.12.21.03.43.07.64.09.1,0,.19.02.29.03h.04c.65.06,1.31.08,1.97-.02.33-.05.66-.13.97-.28.08-.04.15-.08.22-.13s.14-.1.21-.16c.05-.09.1-.17.16-.23h0Zm-2.55-.59s.13-.05.23-.07c.08-.02.03-.12.03-.12-.34-.17-.21-.22-.21-.22h.21s.11-.17-.08-.27c-.16-.07.13-.38.24-.4.13,0,.37.37.37.37,0,0,.18.07.29.05.08-.02.48.34.48.34.42.08.29.27.29.27h-.21s-.08,0-.24-.19c-.13-.2-.32-.12-.32-.12.18.04.18.2.29.22.1,0,.13.16.13.16.24.05.14.25.14.25l-.35-.2c-.08-.14-.24-.07-.24-.07.29.2.38.45.27.43-.13-.03-.27-.03-.27-.03l.03.22-.44.02.02.08-.37.02-.32-.29h.4c.09-.02-.35-.38-.37-.45Zm1.5-.76s.06.1.15.1c.11,0,.24.2.24.2l-.16.1-.1-.1s-.06.05-.14-.06c-.04-.09,0-.24,0-.24Zm-.33,1.63s-.11.07-.11.14c0,.03-.1.06-.2.08,0,0-.03,0-.04,0s-.03,0-.04,0c-.02,0-.04,0-.07,0-.02,0-.04,0-.06,0h-.33s-.05-.16.05-.14c.11.05.32-.05.32-.05.39-.18.48-.07.48-.07Zm.91-.96c.06.04.24.34.14.37-.11.03-.24.07-.24.07l.06-.17s0-.12-.06-.15c-.08,0,0-.34,0-.34h.13s-.08.17-.03.22Zm2.08-.74c-.53.94-.29,1.2-.29,1.2,0,0-.36.67-1.03.69l-.06-.11c.02-.11.03-.22.05-.33,0-.08.02-.16,0-.26,0-.03,0-.05,0-.09,0-.03,0-.08-.09-.14-.06-.04-.12-.03-.15-.02-.09-.06-.17-.12-.17-.12,0,0-.03-.12.08-.09.1.04.28.09.28.09l-.02-.14s-.37-.12-.42-.25c-.06-.17.08-.13.08-.13l.26.1-.05-.14s-.4-.22-.85-.2c-.42.02.82-.15.82-.15,0,0-.82-.4-1.45-.28-.61.14.41-.32,1.45-.09,0,0-.29-.27-1.29-.3,0,0,.47-.29,2.97-.17l.11-.1.08.07s.25.02-.31.96Zm-2.58-1.01v-.07l2.35-.03v.1h-2.35Zm2.64-.12s.05-.08.1-.08c.06,0,.1.03.1.08,0,.02-.05.07-.1.07s-.1-.05-.1-.07Zm.37-.13s-.08-.05-.08-.1c0-.03.03-.07.08-.07.03,0,.06.05.06.07-.01.05-.04.1-.06.1Zm-.5-.86l.13-.07s.58.04.61.57c0,0-.14.2-.22.02-.08-.19.06-.09-.06-.21-.13-.15-.36-.17-.36-.17,0,0-.15-.09-.1-.14Zm-1.24-.2c.08,0,.16.05.16.1s-.08.09-.16.09-.13-.04-.13-.09c0-.05.05-.1.13-.1Zm-.34.05s.1.02.1.07c0,.04-.05.1-.1.1-.06,0-.08-.05-.08-.1,0-.05.02-.07.08-.07Zm.21.29c1.37-.09,1.63.37,1.63.37.06.13-.18.05-.18.05-.89-.71-2.79,0-2.79,0,.27.13,2.37.13,2.08.17-.29.07-3.32.07-3.39.14-.06.06.07.1.07.22,0,.1-.63,0-.63,0-.06.15-.21.24-.38.29-.09.03-.18.04-.28.05-.31.02-.6-.03-.6-.03,0,0,.11-.13.18-.17.05-.03-.26-.28-.32-.41-.03-.05.09-.06.22-.05-.34-.22-.93-.72-1.08-.96-.24-.31-.08-.7-.05-.66.02.08,1.05,1.58,1.1,1.19.03-.39-.34-.42-.42-.49-.05-.07,0-.38.08-.35.05.02.42.31.47.34-.02-.06-.27-.71-.07-.37,0,.03.04.06.07.08h0c.08.08.22.15.38.21.59.25,1.55.43,1.55.43,0,0,.98.08,2.36-.05Zm-.61-.21v.1h-1.61l-.08-.1h1.69Zm-.74-.42c-.11.1-.71-.08-.71-.08-.02-.05.71-.37.42-.46-.29-.1-.76.46-.76.46,0,0,.14.35-.05,0-.19-.34,1.68-1.45,1.68-1.45-.9.1-1.73,1.14-1.73,1.14l-.29-.03c-.08-.25,1.21-.86,1-.91-.18-.06-1.08.54-1.08.54,0,0,.1-.32.05-.22-.08.07-.32,0-.32,0,1.17-1.03,3.11-.8,3.11-.8.24.21-1.24,1.68-1.32,1.81Zm1.14-.49l-.16-.2s.1-.05.87-.07c.76-.03.79-.18.79-.18l-1.31.05s-.18.08-.18-.14c-.03-.22,1.98-.2,2.16-.22.21-.02.31-.24.23-.15-.07.11-2.16.02-2.16.02.03-.21,1.19-.21,1-.31-.18-.12-.61-.18-.61-.18l.22-.07s.05-.19-.08-.1c-.1.06-.56,0-.72-.04.1,0,.24-.13.24-.13h1.27c.13,0,.47.08.47.08l-1,.09s.66-.02.95.13c.29.18,1.6.19,1.6.19-.79,1.25-3.58,1.23-3.58,1.23Z"/>
    <path class="cls-2" d="m29.79.77s0,.04,0,.06v-.06Zm0,0s0,.04,0,.06v-.06Zm0,0s0,.04,0,.06v-.06Zm0,0s0,.04,0,.06v-.06Zm0,0s0,.04,0,.06v-.06Zm0,0s0,.04,0,.06v-.06Zm0,0s0,.04,0,.06v-.06Zm0,0s0,.04,0,.06v-.06Zm0,0s0,.04,0,.06v-.06Zm0,0s0,.04,0,.06v-.06Zm0,0s0,.04,0,.06v-.06Zm0,0s0,.04,0,.06v-.06Zm0,0s0,.04,0,.06v-.06Zm0,0s0,.04,0,.06v-.06Zm0,0s0,.04,0,.06v-.06Zm0,0s0,.04,0,.06v-.06Zm0,0s0,.04,0,.06v-.06Zm0,0s0,.04,0,.06v-.06Zm18.78,27.68s-.04-.1-.06-.21c-.03-.19-.06-.39-.08-.58-.03-.19-.08-.4-.12-.58,0-.02-.02-.04-.02-.05v-.04s0-.03.02-.04c0,0,.02-.02.03-.04v-.06c-.18,0-.36,0-.53-.02v.08s.03.02.04.03c0,.02,0,.03,0,.05v.04s0,.03,0,.04c-.05.19-.09.38-.14.56-.05.19-.11.37-.17.56-.05.13-.07.21-.1.25,0,0,0,.02-.02.03.02.03.03.04.05.04v.08h.27v-.08s-.05,0-.07-.02c0-.02-.02-.05,0-.1,0-.02,0-.04,0-.07,0-.04,0-.07.02-.11.03-.09.06-.19.1-.29.11,0,.21.06.27.14.07.09.1.19.09.3,0,.04,0,.07-.02.1-.02.02-.04.04-.07.04v.08c.19,0,.4,0,.59,0v-.07s-.06-.02-.08-.05Zm-.61-.68s-.09-.04-.13-.05c.04-.16.09-.34.14-.51.04.22.07.43.1.64-.03-.04-.07-.06-.11-.08Zm1.72.06c-.06.18-.13.3-.2.4-.08.08-.15.13-.24.13-.05,0-.08,0-.1-.04-.02-.04-.02-.12-.02-.25.02-.15.03-.3.03-.45.02-.15.02-.31.02-.46,0-.1,0-.16,0-.2,0-.02.04-.05.08-.07v-.06h-.54v.07s.06.03.07.06c0,.03.02.1.02.2,0,.18,0,.35-.02.53,0,.17-.02.35-.04.53,0,.1,0,.17-.03.2,0,.04-.04.05-.07.07v.07c.27,0,.53-.03.81-.05.02,0,.04,0,.04,0,.02,0,.02,0,.04.02.02-.12.04-.23.07-.35.03-.11.07-.23.1-.35,0,0-.02,0-.03-.01Zm-2.07-13.67s-.02,0,.02,0c-.01,0-.02,0-.02,0Zm-21.87,13.21c-.02-.12-.07-.21-.13-.3-.12-.17-.27-.26-.45-.27-.17,0-.33.08-.45.25-.06.07-.1.16-.13.26-.03.1-.04.21-.04.34,0,.12.01.23.04.34.03.1.07.2.13.29.12.18.27.29.45.3.17.03.33-.06.45-.21.06-.09.11-.18.13-.29.03-.1.05-.22.05-.35,0-.13-.02-.25-.05-.36Zm-.39.87c-.04.09-.1.13-.17.13-.08,0-.14-.09-.19-.23-.05-.15-.07-.34-.07-.59,0-.16.02-.29.06-.38.04-.09.09-.13.17-.13s.14.08.18.23c.05.15.08.35.08.59,0,.15-.02.28-.06.38Zm1.66.09h0c-.04-.19-.09-.33-.13-.43-.04-.12-.08-.22-.13-.3.08-.09.14-.16.18-.22.03-.08.05-.15.05-.24,0-.1-.02-.18-.06-.22-.04-.05-.1-.06-.19-.06h-.82v.07s.06.02.07.06c.01.03.02.1.02.21v.53c0,.18,0,.35-.01.53,0,.11,0,.18-.02.21,0,.02-.03.05-.06.05v.08c.17.02.35.02.53.03v-.08s-.06-.03-.07-.06-.02-.11-.02-.22c0-.15.01-.32.01-.47.01,0,.04-.02.07-.03.06.11.12.23.16.36.05.13.06.24.06.31,0,.03,0,.05-.01.06,0,0-.02.03-.04.05v.07c.17,0,.36.02.53.02v-.09s-.08-.07-.12-.22Zm-.45-.87c-.05.07-.12.12-.2.14v-.43c0-.07,0-.11.02-.12.02-.02.05-.03.1-.03.06,0,.08.02.11.05s.03.08.03.15c0,.09-.01.18-.06.24ZM29.79.77s0,.04,0,.06v-.06Zm-3.43,13.39s-.01,0-.02,0c.04,0,.05,0,.02,0Zm-.5-2.73c-.06.05.12-.05.27-.21-.11.09-.22.18-.27.21ZM29.79.77s0,.04,0,.06v-.06Zm0,0s0,.04,0,.06v-.06Zm0,0s0,.04,0,.06v-.06Zm0,0s0,.04,0,.06v-.06Zm0,0s0,.04,0,.06v-.06Zm0,0s0,.04,0,.06v-.06Zm0,0s0,.04,0,.06v-.06Zm0,0s0,.04,0,.06v-.06Zm0,0s0,.04,0,.06v-.06Zm0,0s0,.04,0,.06v-.06Zm0,0s0,.04,0,.06v-.06Zm0,0s0,.04,0,.06v-.06Zm0,0s0,.04,0,.06v-.06Zm0,0s0,.04,0,.06v-.06Zm0,0s0,.04,0,.06v-.06Zm0,0s0,.04,0,.06v-.06Z"/>
    <path class="cls-1" d="m47.62,14.16s-.05,0-.02,0c.01,0,.02,0,.02,0Z"/>
    <g>
      <path class="cls-1" d="m29.79.83s0-.04,0-.06c0,0,0,.02,0,.06Z"/>
      <path class="cls-1" d="m26.13,11.21c-.14.16-.33.26-.27.21.05-.02.16-.11.27-.21Z"/>
      <path class="cls-1" d="m26.34,14.16s.01,0,.02,0c.03,0,.02,0-.02,0Z"/>
    </g>
    <path class="cls-2" d="m25.74,27.38c-.02-.12-.07-.21-.13-.3-.12-.17-.27-.26-.45-.27-.17,0-.33.08-.45.25-.06.07-.1.16-.13.26-.03.1-.04.21-.04.34,0,.12.01.23.04.34.03.1.07.2.13.29.12.18.27.29.45.3.17.03.33-.06.45-.21.06-.09.11-.18.13-.29.03-.1.05-.22.05-.35,0-.14-.02-.26-.05-.36Zm-.38.86c-.04.09-.1.13-.17.13-.08,0-.14-.09-.19-.23-.05-.15-.07-.34-.07-.59,0-.16.02-.29.06-.38.04-.09.09-.13.17-.13s.14.08.18.23c.05.15.08.35.08.59-.01.15-.03.28-.06.38Zm1.65.09h0c-.04-.19-.09-.33-.13-.43-.04-.12-.08-.22-.13-.3.08-.09.14-.16.18-.22.03-.08.05-.15.05-.24,0-.1-.02-.18-.06-.22-.04-.05-.1-.06-.19-.06h-.82v.07s.06.02.07.06c.01.03.02.1.02.21v.53c0,.18,0,.35-.01.53,0,.11,0,.18-.02.21,0,.02-.03.05-.06.05v.08c.17.02.35.02.53.03v-.07s-.06-.03-.07-.06-.02-.11-.02-.22c0-.15.01-.32.01-.47.01,0,.04-.02.07-.03.06.11.12.23.16.36.05.13.06.24.06.31,0,.03,0,.05-.01.06,0,0-.02.03-.04.05v.07c.17,0,.36.02.53.02v-.09s-.07-.08-.12-.23Zm-.45-.87c-.05.07-.12.12-.2.14v-.43c0-.07,0-.11.02-.12.02-.02.05-.03.1-.03.06,0,.08.02.11.05s.03.08.03.15c0,.1-.01.18-.06.24Zm10.24-1.78s-.05-.04-.06-.04c-.03,0-.05,0-.07.02-.02,0-.04.04-.07.1-.08.12-.16.25-.23.37h.09c.09-.07.18-.14.28-.21.03,0,.05-.04.06-.06.02-.02.02-.04.02-.08s0-.08-.02-.1Zm12.88,2.16c-.06.18-.13.3-.2.4-.08.08-.15.13-.24.13-.05,0-.08,0-.1-.04-.02-.04-.02-.12-.02-.25.02-.15.03-.3.03-.45.02-.15.02-.31.02-.46,0-.1,0-.16,0-.2,0-.02.04-.05.08-.07v-.06h-.54v.07s.06.03.07.06c0,.03.02.1.02.2,0,.18,0,.35-.02.53,0,.17-.02.35-.04.53,0,.1,0,.17-.03.2,0,.04-.04.05-.07.07v.07c.27,0,.53-.03.81-.05.02,0,.04,0,.04,0,.02,0,.02,0,.04.02.02-.12.04-.23.07-.35.03-.11.07-.23.1-.35,0,0-.02-.01-.03-.01Zm-1.11.61s-.04-.1-.06-.21c-.03-.19-.06-.39-.08-.58-.03-.19-.08-.4-.12-.58,0-.02-.02-.04-.02-.05v-.04s0-.03.02-.04c0,0,.02-.02.03-.04v-.06c-.18,0-.36,0-.53-.02v.08s.03.02.04.03c0,.02,0,.03,0,.05v.04s0,.03,0,.04c-.05.19-.09.38-.14.56-.05.19-.11.37-.17.56-.05.13-.07.21-.1.25,0,0,0,.02-.02.03.02.03.03.04.05.04v.08h.27v-.08s-.05,0-.07-.02c0-.02-.02-.05,0-.1,0-.02,0-.04,0-.07,0-.04,0-.07.02-.11.03-.09.06-.19.1-.29.11,0,.21.06.27.14.07.09.1.19.09.3,0,.04,0,.07-.02.1-.02.02-.04.04-.07.04v.08c.19,0,.4,0,.59,0v-.07s-.06-.02-.08-.05Zm-.61-.68s-.09-.04-.13-.05c.04-.16.09-.34.14-.51.04.22.07.43.1.64-.03-.04-.07-.06-.11-.08Z"/>
    <g>
      <path class="cls-2" d="m36.8,25.68s-.05-.04-.06-.04c-.03,0-.05,0-.07.02-.02,0-.04.04-.07.1-.08.12-.16.25-.23.37h.09c.09-.07.18-.14.28-.21.03,0,.05-.04.06-.06.02-.02.02-.04.02-.08s0-.08-.02-.1Zm-8.41,2.89h-.01s-.02,0-.02,0h.01l.02.06h.01v-.06h-.01Zm-1.38-.24h0c-.04-.19-.09-.33-.13-.43-.04-.12-.08-.22-.13-.3.08-.09.14-.16.18-.22.03-.08.05-.15.05-.24,0-.1-.02-.18-.06-.22-.04-.05-.1-.06-.19-.06h-.82v.07s.06.02.07.06c.01.03.02.1.02.21v.53c0,.18,0,.35-.01.53,0,.11,0,.18-.02.21,0,.02-.03.05-.06.05v.08c.17.02.35.02.53.03v-.07s-.06-.03-.07-.06-.02-.11-.02-.22c0-.15.01-.32.01-.47.01,0,.04-.02.07-.03.06.11.12.23.16.36.05.13.06.24.06.31,0,.03,0,.05-.01.06,0,0-.02.03-.04.05v.07c.17,0,.36.02.53.02v-.09s-.07-.08-.12-.23Zm-.45-.87c-.05.07-.12.12-.2.14v-.43c0-.07,0-.11.02-.12.02-.02.05-.03.1-.03.06,0,.08.02.11.05s.03.08.03.15c0,.1-.01.18-.06.24Zm-.82-.08c-.02-.12-.07-.21-.13-.3-.12-.17-.27-.26-.45-.27-.17,0-.33.08-.45.25-.06.07-.1.16-.13.26-.03.1-.04.21-.04.34,0,.12.01.23.04.34.03.1.07.2.13.29.12.18.27.29.45.3.17.03.33-.06.45-.21.06-.09.11-.18.13-.29.03-.1.05-.22.05-.35,0-.14-.02-.26-.05-.36Zm-.38.86c-.04.09-.1.13-.17.13-.08,0-.14-.09-.19-.23-.05-.15-.07-.34-.07-.59,0-.16.02-.29.06-.38.04-.09.09-.13.17-.13s.14.08.18.23c.05.15.08.35.08.59-.01.15-.03.28-.06.38Z"/>
      <path class="cls-2" d="m43.74,27.84c-.03.11-.07.22-.09.33-.02.09-.04.17-.06.25-.02,0-.04-.02-.05-.03h-.17s-.07.02-.1.02h-.06c-.07,0-.13-.03-.19-.06-.1-.05-.18-.13-.25-.23,0,0-.02-.02-.02-.04-.06-.1-.1-.21-.13-.33-.02-.13-.03-.27-.02-.41,0-.27.05-.48.16-.61.02-.03.04-.05.06-.07.09-.08.22-.12.39-.11.04,0,.09,0,.16.03.06,0,.1.02.12.02h.04s.04,0,.06-.03c.02.12.04.24.05.36.02.12.04.24.06.37-.03,0-.05,0-.07,0-.05-.18-.11-.3-.17-.38-.05-.07-.11-.11-.17-.11-.1,0-.17.04-.23.15-.06.1-.09.23-.1.41,0,.22.02.41.09.56.05.12.12.19.2.23.03,0,.06.02.09.02s.06,0,.09,0c.04,0,.08-.03.11-.07.06-.06.11-.14.16-.28,0,0,.02,0,.04,0Z"/>
      <path class="cls-2" d="m42.49,27.6c-.04.12-.06.24-.09.35,0,.04-.02.08-.03.12-.02.08-.04.15-.05.22,0,0-.02-.02-.03-.03-.02,0-.04,0-.06,0-.29-.03-.56-.05-.85-.07v-.07s.06-.03.07-.05c0,0,0-.03,0-.07s0-.08,0-.14c0-.17.02-.36.03-.53s0-.35,0-.52c0-.1,0-.17-.02-.2,0-.03-.03-.06-.07-.07v-.08c.27.02.54.04.8.05h.06s.03-.02.04-.05c.03.21.06.41.09.62h-.05c-.02-.13-.08-.23-.14-.29-.06-.07-.15-.11-.23-.11-.05,0-.09,0-.1.04-.02,0-.03.08-.03.15v.19h.09c.07,0,.11,0,.13-.03s.03-.09.04-.16h.04c0,.11.02.23.03.34s0,.23.02.35h-.02c-.02-.11-.05-.19-.08-.24-.03-.04-.08-.07-.15-.08h-.09c0,.19-.02.37-.03.57,0,.1,0,.17.02.21,0,0,0,.02.02.02h0s.05.02.09.03c.04,0,.08,0,.12-.02.05,0,.1-.04.15-.09.07-.07.14-.19.21-.38,0,.03.03.03.04.03Z"/>
      <path class="cls-2" d="m41.31,27.51c-.03.12-.06.24-.09.35,0,.04-.02.09-.03.13-.02.07-.04.14-.05.22,0,0-.02-.02-.02-.03,0,0-.03,0-.05,0-.26-.02-.54-.04-.8-.06v-.07s.06-.02.08-.05c0,0,0-.02,0-.04,0-.03,0-.09,0-.16,0-.17.02-.35.02-.51,0-.18,0-.35,0-.52,0-.11,0-.17,0-.21-.02-.03-.04-.05-.07-.06v-.08c.18,0,.36.02.54.03v.07s-.06.03-.07.06c-.02.03-.02.1-.02.2,0,.15,0,.3,0,.45,0,.16-.02.31-.02.46,0,.12,0,.21.02.24,0,0,.02.02.04.03h0s.04.02.06.02.05,0,.07,0c.05,0,.11-.05.16-.1.06-.08.13-.2.18-.39,0,.04.03.04.04.04Z"/>
      <path class="cls-2" d="m40.19,27.44c-.03.12-.06.23-.09.34,0,.05-.03.1-.04.15-.02.07-.03.13-.04.2,0-.02-.03-.02-.03-.03,0,0-.04,0-.06-.02-.29,0-.56-.02-.85-.04v-.07s.06-.02.07-.06v-.02s0-.1.02-.18c0-.18.02-.34.03-.51,0-.16,0-.34,0-.51,0-.1,0-.17-.02-.2-.02-.04-.04-.05-.07-.06v-.07c.27,0,.54.02.8.03.03,0,.05,0,.07,0,0,0,.03-.02.03-.03.03.19.07.38.1.59h-.05c-.03-.13-.08-.22-.15-.29-.06-.07-.14-.1-.24-.11-.04,0-.07.02-.09.04s-.03.08-.03.16v.17s.07,0,.1,0c.06,0,.1,0,.12-.04.02-.03.04-.08.04-.15h.04c0,.11.02.21.03.33.02.1.02.21.03.33,0,0-.03,0-.04,0,0-.11-.05-.19-.07-.23-.04-.04-.09-.07-.16-.07-.02,0-.06,0-.08,0,0,.18,0,.38-.02.55,0,.1,0,.16.02.2s.06.05.11.05c.1.02.19-.03.26-.1.08-.09.15-.2.22-.38,0,.03.02.03.03.03Z"/>
      <path class="cls-2" d="m38.3,27.18c0,.17,0,.33-.02.51,0,.09,0,.15,0,.19h0s.03.05.07.07v.07h-.35v-.07s.07-.02.09-.05c0,0,0,0,0-.02,0-.03,0-.08.02-.14v-.06c-.1-.18-.2-.35-.3-.52-.1-.17-.21-.35-.31-.51,0,.16,0,.33,0,.5s-.02.33-.02.5c0,.11,0,.19,0,.22h0s.04.05.07.06v.07h-.33v-.07s.05-.02.06-.04c0,0,0,0,0,0,0-.03.02-.09.02-.19,0-.18,0-.34,0-.51v-.5c0-.1,0-.17,0-.2,0-.03-.03-.05-.07-.06v-.06h.65v.06s-.02.03-.03.04c0,0,0,.02,0,.03,0,.02,0,.03,0,.04s.02.03.02.05c.08.11.14.24.22.36v-.25c0-.1,0-.17-.02-.2,0-.02-.03-.05-.06-.05v-.07c.1,0,.22,0,.32,0v.06s-.06.03-.07.05c0,.04-.02.1-.02.2.02.15.02.32.02.49Z"/>
      <path class="cls-2" d="m37.11,26.84c-.03-.1-.07-.19-.13-.28-.13-.17-.27-.24-.45-.24-.17,0-.32.09-.44.27-.06.08-.1.17-.14.28-.03.11-.04.22-.06.35,0,.12,0,.23.04.35.02.09.06.19.13.27.02.04.05.07.08.1.08.08.17.12.27.13.04,0,.07,0,.1,0,.02,0,.04,0,.06,0h0c.1-.02.2-.07.29-.15.03-.03.06-.06.09-.1.06-.08.11-.18.14-.29.04-.1.06-.2.06-.33,0-.12,0-.23-.05-.34Zm-.41.86c-.05.09-.1.14-.18.15-.08,0-.14-.07-.19-.2-.04-.14-.06-.33-.05-.57,0-.17.03-.3.07-.39s.09-.15.17-.15.15.07.19.2c.06.15.08.34.07.58,0,.16-.04.28-.08.38Z"/>
      <path class="cls-2" d="m35.69,27.22c0,.17,0,.34-.02.51,0,.11,0,.17,0,.2h0s.03.05.06.05c0,.03,0,.04,0,.07-.18,0-.36.02-.53.03v-.06s.06-.03.07-.06h0s0-.11.02-.21c0-.17,0-.34.02-.52,0-.17,0-.34,0-.51,0-.11,0-.17-.02-.2,0-.03-.04-.05-.07-.06v-.07c.18,0,.35,0,.52,0v.07s-.05.02-.07.06c0,.03-.02.1-.02.21.02.16.02.33.01.5Z"/>
      <path class="cls-2" d="m35.15,27.57c-.04.13-.07.27-.11.41,0,.04-.02.08-.03.12,0,0,0,.02,0,.03,0,0-.03,0-.05,0-.02,0-.03,0-.04,0-.04,0-.07,0-.13.03-.07.02-.11.03-.15.03-.09,0-.18,0-.25-.04-.05-.02-.1-.06-.15-.1-.03-.03-.05-.06-.08-.1-.07-.09-.12-.18-.14-.3-.03-.13-.04-.25-.04-.4,0-.27.06-.48.16-.61.1-.15.25-.22.45-.23.05,0,.11,0,.16,0h.11s.04,0,.05,0c.02,0,.04,0,.07-.03,0,.11.02.23.04.34,0,.11.04.23.05.34-.02,0-.04,0-.06.02-.06-.16-.11-.27-.17-.33-.05-.07-.11-.1-.18-.1-.1,0-.17.06-.23.17-.06.1-.08.24-.09.41,0,.22.03.4.1.54.07.13.17.2.29.19.08,0,.15-.04.2-.1.06-.07.11-.16.15-.27.05-.02.06-.02.08,0Z"/>
      <path class="cls-2" d="m33.95,28.12s-.05,0-.07-.05c0,0,0,0,0,0-.02-.03-.04-.09-.05-.19-.04-.18-.07-.39-.11-.57-.05-.19-.1-.39-.13-.57,0-.03,0-.04-.02-.06v-.03s0-.03.02-.04c0,0,.02-.02.03-.03v-.08c-.17.02-.35.03-.53.04v.07s.03.02.03.03c0,.02.02.03.02.05v.04s0,.02,0,.03c-.05.2-.1.39-.14.58-.05.19-.1.38-.14.57-.04.13-.07.21-.09.26h0s-.06.08-.09.09v.08c.13-.02.26-.03.39-.04v-.07s-.05,0-.06-.03c0,0,0-.02-.02-.03,0-.02,0-.03,0-.06,0-.02,0-.04,0-.07,0-.04,0-.07.02-.11.02-.1.04-.19.07-.29.13,0,.22.04.29.11.07.08.11.17.1.29,0,.03,0,.06,0,.08v.02s-.05.04-.07.05v.07c.2,0,.4-.03.6-.04v-.05s-.02-.03-.02-.04Zm-.7-.68s-.09-.02-.14-.03c.04-.17.09-.34.13-.52.04.21.07.42.12.61-.04-.02-.07-.04-.11-.06Z"/>
      <path class="cls-2" d="m32.72,27.63c-.03.12-.06.24-.09.36,0,.06-.03.12-.04.18,0,.03-.02.06-.02.09,0,.03,0,.06-.02.09,0,0-.02,0-.04-.02h-.05c-.28.02-.56.05-.85.09v-.05s0-.02,0-.04c0-.03.02-.06.03-.09.09-.23.18-.46.27-.68.1-.27.2-.55.31-.82-.02,0-.04,0-.06,0-.1,0-.19.06-.26.12-.07.08-.13.19-.18.34-.02,0-.03,0-.05,0,.03-.2.06-.41.1-.62,0,0,0,.02.04.02,0,0,.02,0,.04,0h.02c.27-.02.55-.04.82-.06v.05c-.11.25-.2.52-.31.79-.1.27-.21.53-.32.8.03,0,.05,0,.08,0,.11,0,.21-.06.3-.15.09-.1.16-.23.23-.4,0,0,.02,0,.04,0Z"/>
      <path class="cls-2" d="m31.44,28.08v.21s.03.05.06.05c0,0,0,0,0,0v.08c-.18,0-.36.02-.53.04v-.08s.03,0,.05-.03c0,0,.02-.02.02-.03,0,0,0-.03,0-.06,0-.04,0-.09,0-.16,0-.18,0-.36,0-.54v-.56c0-.11,0-.18-.02-.22,0-.03-.03-.06-.06-.06v-.07s.1,0,.15,0c.12,0,.25-.02.37-.03v.07s-.05.04-.07.07c0,.04,0,.1,0,.21,0,.19,0,.37,0,.55v.56h.01Z"/>
      <path class="cls-2" d="m30.75,28.13v.14s0,.06,0,.08t0,0s.04.04.07.04v.07c-.13,0-.23.02-.35.02v-.07s.08-.02.09-.05c0,0,0,0,0,0,0-.02,0-.05.02-.09v-.14c-.11-.18-.21-.36-.32-.54-.1-.18-.2-.36-.31-.53v.53c0,.18,0,.37,0,.55v.09s0,.07,0,.1c0,.03,0,.05,0,.06,0,.03.04.06.08.06v.07c-.11,0-.22,0-.34.03v-.08s.06-.03.07-.06c0-.02,0-.06,0-.1v-.13c0-.18,0-.37,0-.55v-.56c0-.12,0-.19-.02-.22,0-.03-.03-.05-.07-.06v-.07c.22,0,.43,0,.66-.04v.07s-.02.04-.03.04c0,.02-.02.03-.02.04,0,.02,0,.03.02.05,0,0,0,.04.02.05.07.13.15.25.22.38v-.28c0-.11,0-.18-.02-.22,0-.03-.03-.06-.07-.06v-.08c.1,0,.21-.02.32-.02v.07s-.06.04-.07.06c0,.03-.02.11-.02.22v.55c.01.22.01.4.01.58Z"/>
      <path class="cls-2" d="m29.63,28.44s-.04-.06-.05-.14c0-.02,0-.04-.02-.06,0-.02,0-.03,0-.05-.04-.19-.07-.39-.12-.57-.04-.2-.08-.41-.13-.61v-.1s0-.03,0-.05c0,0,.02-.03.03-.03v-.07c-.17,0-.36.02-.52.02v.08s.02.02.03.04c.01,0,.01.03.01.05v.04s-.01.02-.01.04c-.05.2-.09.39-.14.59-.02.07-.03.15-.05.22-.01.04-.02.08-.03.12-.02.08-.04.16-.05.24-.04.13-.06.22-.09.27-.02.03-.06.06-.1.07h0s.01,0,.01,0v.06c.13,0,.26,0,.39,0v-.08s-.05,0-.07-.04c-.02,0-.02-.04-.02-.08,0-.02,0-.05.01-.09.01-.03.02-.06.02-.1.01-.06.03-.12.05-.19.01-.04.02-.07.03-.11v-.02c.12,0,.21.06.28.14.04.04.07.09.08.14.02.05.03.1.03.16,0,.05,0,.08-.02.11-.02.02-.05.04-.07.04v.09c.19,0,.39-.03.59-.04v-.07s-.06.02-.07-.02Zm-.65-.69s-.09-.03-.14-.04c.05-.17.08-.35.12-.53.04.22.1.43.14.66-.04-.04-.09-.07-.12-.09Z"/>
      <path class="cls-2" d="m28.31,27.9c0,.12-.01.26-.01.39,0,.11.01.18.02.21.01.02.03.04.06.06h-.02s.01,0,.01,0l.02.06c-.08,0-.17,0-.25,0-.06,0-.12,0-.19.02-.07,0-.11,0-.12,0-.22,0-.39-.1-.51-.26-.06-.1-.11-.2-.14-.33-.03-.12-.04-.26-.04-.42,0-.26.05-.48.14-.63.1-.15.24-.23.43-.23.05,0,.11,0,.17,0h.01c.07,0,.1.02.12.02.01,0,.02,0,.03,0s.02,0,.02,0c.02-.02.05-.02.06-.06.01.14.03.29.04.44,0,.05.01.11.02.16h-.04c-.05-.12-.1-.21-.16-.26-.01,0-.02-.02-.03-.02-.05-.04-.1-.06-.15-.06-.1,0-.19.06-.24.17-.06.11-.09.26-.09.46,0,.22.02.42.09.58.07.15.14.23.24.23.05,0,.08-.02.09-.05.02-.05.03-.12.03-.24v-.26c0-.11,0-.18-.01-.22-.02-.03-.04-.06-.08-.06v-.06c.12,0,.23,0,.36-.02h.2v.07s-.06.04-.08.07h0s0,.12,0,.22Z"/>
      <polygon class="cls-2" points="28.39 28.57 28.39 28.63 28.37 28.57 28.36 28.57 28.38 28.56 28.39 28.57"/>
      <path class="cls-2" d="m48.57,28.45s-.04-.1-.06-.21c-.03-.19-.06-.39-.08-.58-.03-.19-.08-.4-.12-.58,0-.02-.02-.04-.02-.05v-.04s0-.03.02-.04c0,0,.02-.02.03-.04v-.06c-.18,0-.36,0-.53-.02v.08s.03.02.04.03c0,.02,0,.03,0,.05v.04s0,.03,0,.04c-.05.19-.09.38-.14.56-.05.19-.11.37-.17.56-.05.13-.07.21-.1.25,0,0,0,.02-.02.03.02.03.03.04.05.04v.08h.27v-.08s-.05,0-.07-.02c0-.02-.02-.05,0-.1,0-.02,0-.04,0-.07,0-.04,0-.07.02-.11.03-.09.06-.19.1-.29.11,0,.21.06.27.14.07.09.1.19.09.3,0,.04,0,.07-.02.1-.02.02-.04.04-.07.04v.08c.19,0,.4,0,.59,0v-.07s-.06-.02-.08-.05Zm-.61-.68s-.09-.04-.13-.05c.04-.16.09-.34.14-.51.04.22.07.43.1.64-.03-.04-.07-.06-.11-.08Zm1.72.07c-.06.18-.13.3-.2.4-.08.08-.15.13-.24.13-.05,0-.08,0-.1-.04-.02-.04-.02-.12-.02-.25.02-.15.03-.3.03-.45.02-.15.02-.31.02-.46,0-.1,0-.16,0-.2,0-.02.04-.05.08-.07v-.06h-.54v.07s.06.03.07.06c0,.03.02.1.02.2,0,.18,0,.35-.02.53,0,.17-.02.35-.04.53,0,.1,0,.17-.03.2,0,.04-.04.05-.07.07v.07c.27,0,.53-.03.81-.05.02,0,.04,0,.04,0,.02,0,.02,0,.04.02.02-.12.04-.23.07-.35.03-.11.07-.23.1-.35,0,0-.02-.01-.03-.01Z"/>
      <path class="cls-2" d="m47.41,28.46s-.04-.11-.07-.2c-.03-.18-.06-.31-.1-.43-.04-.12-.07-.21-.11-.29.09-.08.15-.14.18-.22.04-.07.05-.14.05-.22,0-.11,0-.17-.06-.23-.05-.04-.11-.07-.19-.07-.21,0-.43-.02-.64-.03-.06,0-.11,0-.17,0v.08s.05.03.06.06c0,.03,0,.08,0,.15v.62c-.02.18-.03.36-.04.54,0,.12-.02.19-.03.22-.02.03-.04.05-.08.05,0,.02,0,.05,0,.07.17,0,.35,0,.52,0v-.07s-.05-.03-.06-.07c-.02-.03-.02-.1,0-.22,0-.15.03-.32.03-.47.02,0,.04-.02.07-.04.06.11.11.24.15.38.04.13.05.24.05.32,0,.03,0,.05,0,.06,0,.02-.03.02-.05.04v.07c.14,0,.28,0,.42,0,0-.02,0-.05,0-.08.04,0,.06,0,.08-.03Zm-.47-1.06c-.05.07-.12.11-.21.14,0-.14,0-.29,0-.43,0-.06,0-.11.02-.12.03-.02.05-.03.1-.03.05,0,.09.03.11.06.02.03.03.08.03.15.01.09,0,.17-.06.23Z"/>
      <path class="cls-2" d="m46.13,27.29c-.02-.07-.04-.13-.07-.19-.02-.04-.04-.08-.06-.11-.12-.18-.28-.28-.45-.29-.18,0-.33.07-.45.25-.07.08-.11.18-.14.29s-.05.24-.05.36c-.02.13,0,.26.02.37,0,.03,0,.06.02.09.02.07.06.15.1.22,0,0,0,.02.02.03.1.16.25.25.42.28.18,0,.33-.08.45-.25.06-.08.11-.18.15-.3.04-.11.06-.23.07-.37,0-.05,0-.1,0-.14,0-.1-.02-.17-.03-.24Zm-.35.48c0,.07,0,.13-.02.18,0,.09-.04.17-.06.24-.05.09-.1.14-.17.14-.06,0-.11-.05-.15-.14,0-.03-.02-.06-.03-.1,0-.05-.02-.11-.03-.17,0-.12-.02-.27,0-.44,0-.18.02-.32.07-.41.04-.11.1-.16.17-.15.08,0,.14.09.19.24.04.11.05.24.06.39-.02.07-.02.14-.02.22Z"/>
      <path class="cls-2" d="m44.9,27.29h-.05c-.02-.13-.06-.22-.12-.3-.05-.06-.11-.1-.19-.11h-.03c0,.2,0,.4,0,.6,0,.19-.02.39-.03.58v.08c0,.09,0,.14,0,.17,0,.04.03.07.08.07h0s0,.05,0,.08c-.16-.02-.32-.03-.47-.04-.04,0-.07,0-.1,0,0-.02,0-.05,0-.08.04,0,.07-.02.08-.06,0-.02.02-.06.03-.12,0-.03,0-.08,0-.12,0-.19.03-.39.04-.59,0-.19,0-.4,0-.59h0c-.08,0-.15.02-.2.09-.05.06-.09.15-.12.28,0,0-.03,0-.05-.02.03-.2.06-.4.09-.61,0,.02.02.02.03.03,0,0,.03,0,.05,0,.26,0,.53.03.81.05h.04s.02-.02.04-.02c0,.2.03.41.06.63Z"/>
    </g>
    <path class="cls-1" d="m33.79,19.86h0s-.04,0-.05,0c-.03,0-.1-.05-.21-.11l-.18-.13s-.08-.06-.13-.08c.12-.11.17-.24.1-.37,0-.03-.02-.05-.04-.07-.04-.04-.09-.06-.15-.06-.05,0-.11,0-.2.05-.03,0-.09.04-.16.07-.04,0-.09.04-.14.05-.1.04-.19.07-.22.09h0s.02.06.02.06h0c.06-.02.08-.02.1-.02,0,0,.02,0,.03,0,.02.04.06.1.11.21l.15.38c.05.11.07.19.08.22,0,.02,0,.04,0,.04,0,0-.03.02-.08.04h0s.02.06.02.06h0s.11-.05.22-.1c.1-.03.18-.06.23-.08h0s-.02-.07-.02-.07c-.06.02-.09.03-.09.03-.02,0-.03,0-.03-.02-.02-.03-.05-.1-.1-.21l-.15-.37c-.05-.12-.08-.19-.09-.24.02,0,.04-.03.07-.03.05-.02.1-.05.13-.04.07,0,.12.05.15.13.02.05.03.09.02.13,0,.05-.02.07-.05.1-.02.02-.04.05-.09.07,0,0-.02,0-.03,0v.02s.04,0,.06.02l.13.09.3.22s.05.03.06.05c.05-.02.09-.05.11-.05.02,0,.06-.02.13-.05,0,0,.03,0,.03,0v-.02l-.04-.02Zm.84-.48h-.05s0,.03,0,.03v.09s0,.04,0,.04c0,0,0,0,0,0-.03.02-.12.06-.26.09l-.1.03c-.03-.06-.05-.12-.06-.18l-.07-.23s.07-.02.11-.02c.03-.02.06-.03.1-.03.04-.02.07-.02.08,0,0,0,.02.04.04.1h.06s0-.02,0-.02c-.02-.06-.04-.11-.05-.16-.02-.05-.03-.1-.05-.15h0s-.04.01-.04.01h0c.02.07.03.1.02.11,0,0-.04.02-.08.03l-.09.03s-.07,0-.1.03l-.07-.16c-.03-.09-.05-.17-.05-.21.04-.02.08-.04.13-.05.04,0,.08-.02.13-.03s.08,0,.09,0c0,0,.03.04.04.11h.05v-.09s-.02-.04-.02-.08l-.02-.08h0c-.27.08-.45.13-.54.16-.1.03-.18.04-.23.06h0s.02.06.02.06h0c.06-.01.09-.01.1-.01s.03,0,.03.02c.02.04.04.11.07.22l.11.38.05.16s.03.09.02.1-.02.03-.05.06h0v.03h0s.1-.03.19-.04l.56-.16h0c-.03-.09-.05-.17-.06-.25Zm.55-.44h-.07v.03s.03.03.03.04c.04,0,.07,0,.1,0,.09,0,.17-.06.22-.13.07-.06.09-.15.07-.26-.02-.05-.04-.08-.06-.12-.06-.05-.16-.08-.3-.05-.02,0-.06,0-.14.03-.08.03-.14.03-.19.04-.1.02-.18.03-.23.04h0s0,.05,0,.05h.1s.03,0,.04.02c0,.04.04.12.05.22l.08.41c.04.12.04.19.04.23,0,.02,0,.03-.02.03s-.04,0-.09.02h0s0,.06,0,.06h0s.13-.01.23-.04c.09-.02.18-.03.25-.04h0s0-.06,0-.06h-.12s-.03,0-.04-.02c0-.02-.03-.11-.06-.23l-.08-.4c-.03-.15-.03-.23-.03-.25.04-.02.07-.03.08-.03.13-.03.21.03.24.17,0,.06,0,.12-.02.16-.01.06-.04.08-.09.09Zm1.66-.64h0s0-.06,0-.06h0c-.1.01-.17.01-.2.01-.05,0-.1,0-.14,0h0v.06s0,0,0,0c.06,0,.09,0,.1,0,.02,0,.03,0,.03.02,0,.02,0,.04.02.1,0,.04,0,.14.02.27l.02.16s0,.08,0,.13c0,.04,0,.08,0,.1,0,.02-.02.05-.04.07-.05.05-.12.08-.21.08-.14,0-.23-.02-.28-.1-.02-.05-.05-.16-.06-.36l-.02-.15c0-.13,0-.2,0-.24t.03-.03s.04,0,.09,0h0v-.06h0s-.12,0-.23.02c-.11,0-.19,0-.24.02h0v.06h.1s.03,0,.03.03c0,.03.02.12.02.23l.02.2c.02.19.04.3.06.35.02.06.07.12.14.14.08.04.19.06.32.05.15-.02.26-.07.34-.16.05-.07.08-.18.06-.34l-.02-.24c-.02-.08-.02-.15-.02-.19v-.12s.03-.05.09-.06Zm-.35-.41l-.2.04-.15.23h0s.04.03.04.03l.33-.28-.02-.02Zm1.13.82s.08-.03.11-.03c.03-.02.06-.03.09-.06.06-.05.09-.1.09-.18,0-.04,0-.08-.04-.12-.04-.06-.14-.1-.28-.1-.03,0-.07,0-.11,0-.06,0-.12,0-.2,0-.11,0-.2,0-.24,0h0v.06h0c.06,0,.08.02.09.02.02,0,.03,0,.03.03,0,.03,0,.12,0,.24v.56c0,.06,0,.1,0,.1,0,0-.03.03-.07.05v.03h0s.42,0,.42,0c.1,0,.18,0,.25-.05.13-.07.18-.17.18-.3,0-.18-.11-.26-.32-.27Zm-.24-.39s.06,0,.1,0c.12,0,.18.06.18.18,0,.04,0,.07-.03.11-.03.06-.08.09-.18.09h-.07v-.37Zm.27.84c-.04.06-.09.07-.17.07h-.1v-.47h.07c.16,0,.25.07.25.22,0,.09-.02.15-.05.18Zm1.31-.05h-.04s0,0,0,0l-.03.09s0,.04-.02.04c0,0,0,0,0,0h-.39v-.2l.04-.46c0-.11.02-.2.03-.24,0-.02,0-.02.03-.02,0,0,.03,0,.08,0h0v-.06h0s-.13,0-.24,0c-.1-.02-.18-.02-.23-.02h0v.05s0,0,0,0c.06,0,.08,0,.09,0s.03,0,.03.02c0,.04,0,.11,0,.24l-.03.39-.02.17c0,.06,0,.09,0,.11,0,0-.02,0-.06.04h0v.03h0s.11.02.2.02l.57.04h.02c-.01-.08,0-.17,0-.25h0Zm.77-.71s-.13-.02-.24-.03c-.11-.02-.18-.03-.24-.04h0s-.02.06-.02.06h0c.06.02.09.02.1.04,0,0,.02,0,.02.03s0,.11-.02.23l-.07.41c-.02.13-.03.2-.04.23,0,.02-.02.02-.03.02,0,0-.04,0-.09,0h0v.06h0c.06,0,.13.02.24.03.12.02.19.04.24.05h0v-.06s0,0,0,0c-.05,0-.07-.02-.09-.03s-.02,0-.02-.03c0-.04,0-.11.03-.23l.07-.4c.02-.13.03-.21.05-.24l.03-.03s.04,0,.09.03v-.03s0-.05,0-.05h-.02Zm1.21.3c-.11-.08-.23-.12-.36-.14-.2-.04-.37-.03-.49.05-.14.08-.23.2-.26.37-.02.1-.02.19,0,.3.06.21.22.34.49.4.14.03.26.03.39,0l.05-.07-.02-.02c-.1.03-.21.03-.31.02-.11-.03-.2-.07-.25-.14-.11-.12-.14-.28-.11-.45.02-.13.08-.22.17-.29.09-.07.2-.08.33-.06.12.02.21.08.25.16,0,.02,0,.06-.02.13h.06s0,0,0,0c.03-.09.06-.17.09-.23l-.02-.02Zm.92,1.35s-.02-.02-.02-.07l-.05-1.04-.11-.04c-.05.07-.1.11-.13.14l-.37.41c-.14.16-.22.24-.24.24-.02.03-.05.03-.11,0h0s-.02.06-.02.06v.02c.09.02.14.04.16.05.03,0,.09.02.18.07h0s0-.06,0-.06h0s-.06-.03-.07-.04c-.02,0-.03-.03-.02-.05,0,0,.03-.05.08-.11l.07-.07c.07.02.13.04.16.05.08.03.14.06.21.08v.25s-.03.03-.05,0h-.07s-.02,0-.02,0v.05s0,0,0,0c.08.02.16.05.26.09,0,0,.08.02.19.07h.02s.02-.05.02-.05h0s-.06-.04-.07-.06Zm-.43-.52c-.06-.02-.11-.04-.15-.05l.3-.33.02.43s-.09-.02-.17-.05Z"/>
    <path class="cls-1" d="m37.2,20.44c-.05-.06-.12-.12-.19-.14-.09-.03-.19-.04-.32-.03h-.15c-.11,0-.21,0-.33,0-.05,0-.1,0-.16,0h0v.06h0s.08,0,.09.02c.02,0,.02,0,.03.03,0,.03,0,.11.02.23l.02.39v.17c0,.06,0,.09,0,.1,0,0-.02,0-.06.04v.04h.47c.11,0,.21-.03.3-.07.08-.02.15-.08.2-.14.11-.11.16-.26.16-.43.01-.1-.02-.2-.07-.28Zm-.22.61c-.03.08-.08.14-.15.17-.05.04-.14.05-.24.05h-.14s-.02-.08-.02-.15v-.34c-.02-.22-.02-.36-.02-.42.05,0,.09,0,.15,0,.08,0,.16,0,.21,0,.05.02.1.04.14.08.08.08.11.18.12.33.02.11,0,.2-.05.28Zm1.31.05h-.06s-.02.11-.02.11c0,.02-.02.04-.02.04h-.02s-.12.02-.28.02h-.11v-.43h.22s.07,0,.07.03c0,0,0,.04,0,.11h.07v-.17c0-.06,0-.1,0-.16v-.02h-.06c0,.07-.02.11-.02.11h-.29v-.16c0-.1,0-.17.03-.23h.14s.08,0,.13,0c.05,0,.08,0,.08.02.02,0,.02.04.02.12h0s.05,0,.05,0h0s0-.09,0-.09c0-.02,0-.03,0-.06l.02-.09h0c-.29,0-.47-.02-.57-.02-.11,0-.19,0-.24,0h0s0,.06,0,.06h0s.09.02.09.02c0,0,.02,0,.02.03v.62s-.02.17-.02.17c0,.06,0,.1,0,.11,0,0-.03.02-.07.04h0v.03h0s.1,0,.19,0l.58.03h0c0-.1.02-.18.03-.26h-.02Z"/>
    <path class="cls-1" d="m33.67,23.89c-.08.08-.16.14-.25.18-.1.04-.2.05-.29.03-.16-.05-.27-.15-.34-.33-.05-.12-.06-.23-.02-.34.03-.1.11-.17.23-.21.11-.05.22-.05.31,0,0,.02.03.06.06.11h.05c-.03-.1-.06-.19-.06-.27h-.02c-.13,0-.25.03-.38.08-.19.07-.32.19-.39.32s-.07.29,0,.44c.04.1.11.17.18.24.16.14.38.16.63.06.13-.05.23-.12.32-.22v-.08h-.02Zm1.21-.73c-.03-.16-.12-.28-.24-.34-.12-.07-.28-.08-.45-.04-.13.03-.22.08-.3.13-.16.14-.21.34-.15.57.04.17.13.29.24.36.13.08.28.09.45.04.19-.05.32-.13.4-.25.09-.13.1-.29.05-.47Zm-.2.35c-.02.15-.1.25-.24.28-.11.04-.22,0-.3-.07-.08-.07-.14-.18-.18-.35-.02-.07-.03-.15-.02-.23,0-.15.09-.23.25-.27.11-.03.21,0,.29.06.09.07.14.17.18.33.02.08.03.18.02.25Zm1.31-.18h-.07s0,.11,0,.11c0,.02,0,.04,0,.04t0,.02s-.13.03-.27.05h-.11s-.02-.13-.03-.18l-.06-.46c0-.12-.03-.21-.02-.24t.02-.04s.04,0,.09,0h0s0-.06,0-.06h0c-.06,0-.14.02-.24.03-.1,0-.18.02-.24.02h0v.06h0c.06,0,.09,0,.09,0,.02,0,.03,0,.03.02,0,.04.03.12.04.24l.05.4.02.16s0,.09,0,.1l-.05.05v.03h0s.11,0,.2-.02l.57-.06h0c0-.12,0-.2,0-.27Zm1.16-.78c-.11-.08-.25-.14-.44-.14-.12.02-.22.04-.31.09-.19.09-.28.27-.27.51,0,.18.06.32.17.42.11.09.24.13.43.13.19-.02.34-.07.44-.18.11-.11.16-.26.15-.45,0-.16-.07-.28-.17-.38Zm-.1.7c-.05.15-.15.23-.3.23-.12,0-.22-.04-.28-.14-.06-.09-.1-.21-.11-.37,0-.09,0-.16.03-.23.04-.14.14-.21.3-.22.12,0,.21.04.28.12.06.09.1.21.1.36.01.09,0,.17-.02.25Zm1.98-.74h-.24s-.06-.02-.12-.02c-.03.05-.05.1-.07.15l-.21.38-.14.24-.22-.53-.04-.11c-.03-.07-.05-.13-.07-.17h-.16c-.08-.02-.15-.02-.2-.02h0v.06h0s.09.02.09.02c.02,0,.03.02.03.04v.23l-.04.41c0,.13-.02.2-.02.24,0,.02-.02.02-.03.03h-.1v.04h0s.12.02.18.02c.05,0,.1,0,.16,0h0v-.06h0s-.09,0-.09-.02c-.02,0-.02-.02-.02-.03,0-.04,0-.11,0-.23l.04-.54.18.43.09.24c.04.1.07.18.09.24h.05s.17-.28.17-.28c.06-.12.11-.2.12-.21l.2-.34-.03.51c0,.12-.02.2-.03.24,0,0,0,.02-.03.02h-.1v.07s.13,0,.24,0c.1,0,.19,0,.24,0h0v-.05s-.01,0-.01,0c-.04,0-.08-.02-.08-.02t-.02-.03s0-.11,0-.23l.03-.4c0-.12,0-.21.03-.24,0-.02,0-.02.03-.03h.09v-.05s-.02-.02-.02-.02Zm1.06.32c-.02-.07-.12-.12-.26-.15-.03,0-.07,0-.11-.02-.06,0-.12-.02-.19-.03-.12-.02-.19-.04-.24-.05h0s0,.06,0,.06h0s.08.04.09.04c0,0,.02,0,.02.02,0,.04-.02.12-.04.24l-.08.38-.04.17c0,.06-.02.1-.02.1,0,0-.03.02-.07.03h0s0,.03,0,.03v.02s.1,0,.16.02l.18.04s.04,0,.07.02c.1.02.18.02.25,0,.13-.05.22-.14.24-.25.03-.17-.05-.27-.26-.32.05,0,.09,0,.12,0,.03,0,.06,0,.1-.03.06-.04.1-.09.11-.16.02-.06.02-.1-.01-.14Zm-.28.62c-.02.08-.05.13-.09.17-.05.03-.11.05-.18.03-.04,0-.07,0-.09-.02,0-.03,0-.08.02-.12l.08-.35s.04,0,.07,0c.15.04.21.13.19.28Zm.06-.51s-.03.07-.05.1c-.04.06-.11.08-.2.06-.03,0-.06,0-.07-.02l.05-.2s0-.09.03-.15c.03,0,.06,0,.1,0,.11.02.16.1.14.2Zm1.04,0s-.12-.03-.23-.06c-.11-.03-.18-.05-.24-.07h0s-.02.06-.02.06h0c.06.03.08.04.08.04.02,0,.02.02.02.03,0,.04-.02.12-.05.23l-.11.39c-.04.11-.06.19-.09.22,0,0,0,.02-.04.02,0,0-.03,0-.08-.02h0s-.03.06-.03.06h0s.12.04.23.07c.11.02.18.05.23.07h0v-.05h0s-.08-.03-.09-.03c-.02,0-.02-.02-.02-.04,0-.04.02-.11.05-.23l.12-.39c.03-.11.06-.19.08-.23,0,0,.02-.02.03-.02s.04,0,.09.02h0l.02-.06h.02Zm.91,1.42s-.05-.02-.06-.04c0,0-.02-.03-.02-.07l-.02-1.04-.11-.04c-.05.06-.1.1-.13.13l-.38.39c-.15.16-.24.24-.25.24-.02.02-.06.02-.1,0h-.02v.05s0,.02,0,.02c.08.02.13.04.15.06.02,0,.09.03.18.07h0s.02-.05.02-.05h0s-.07-.04-.08-.05-.02-.02,0-.04c0,0,.03-.05.09-.1l.06-.08c.07.03.12.05.17.06.07.03.13.06.21.08v.18s0,.06-.02.08c0,0-.02,0-.05,0l-.06-.02h0l-.02.05v.02c.08.03.16.06.26.09.02,0,.09.03.19.08h0s0-.08,0-.08h0Zm-.31-.51s-.09-.03-.16-.05c-.06-.03-.11-.04-.15-.07l.31-.33v.45Z"/>
  </g>
</svg>